<svg id="Capa_1" data-name="Capa 1" xmlns="http://www.w3.org/2000/svg" viewBox="0 0 394.05 378.48"><defs><style>.cls-1{fill-rule:evenodd;}.cls-2,.cls-5{fill:#29abe2;}.cls-3{fill:#0071bc;}.cls-4{fill:red;}.cls-5{font-size:12.54px;font-family:PerpetuaTitlingMT-Light, Perpetua Titling MT;font-weight:300;}.cls-6{letter-spacing:-0.02em;}.cls-7{letter-spacing:0em;}.cls-8{letter-spacing:-0.06em;}</style></defs><title>LogoStockManage</title><path class="cls-1" d="M240.19,77.55c-.36.32-1.08-.66-1.33,0l-.93-.95c.08-.41,1.64.84.83-.18C239.1,76.32,239.69,77.1,240.19,77.55Zm5.28,3c-.27.1-.74-.52-1-.3-.83-.47-.14-.74-.27-1-.37-.64-2.12-1.59-1.21-1.91A9.51,9.51,0,0,1,245.47,80.53Zm-5.63-2.65,1.55,1.59C240.86,80,238.84,78.28,239.84,77.88Zm20.08,15.33c-1-.5-.95-.24-1.74-1.42-.6-.57-.78.36-1.32,0l-3.12-3.18c-.84-1.15.79.35,1.11.79.32-.48-.75-1.41,0-1.77-.61-.57-.79.36-1.33,0C251.52,86,252,85,251.72,83.82a4.82,4.82,0,0,1-2.32-2.7c1.78,1.08,3.25,3.94,4.46,5.57,0-.37-.54-.9-.1-1.12,1.08,1.21,2.45,2.52,1.8,3.2,1.35,2.17,3.46,2.4,4.88,4-.07-.08-.34.75.28,1,.55-.42-.71-1.4.43-1.62.63,1.37,1.54,1.24,2.35,2.06.57.57.61,1.31,1.7,2.07-.18.15-.52-.27-.8-.48-1.51-.62-2.44.79-4.25-.9,1,.6,1.54-.3,2.48.13.15-.25-.43-.72-.76-1.12a8.16,8.16,0,0,0-1.86.51C259.27,93.74,259.67,93.5,259.92,93.21Zm-13.68-9.14c-.38.79-1.72-.53-1.9-1.26C244.76,82.5,245.5,83.26,246.24,84.07Zm6.86,7-.62-.63c-1.15-.88-.69-1.25-1.21-1.92-2.62-2.92.53.41,1.29.62C252.66,89.75,253.64,90.65,253.1,91.06Zm-5-4.44c-.73-.59-.71-1-1.08-1.43.69.06,1.78,1.57,2.13.45C249.75,86.42,248.44,86.76,248.08,86.62Zm-2-5.45c-.79-1,.53-.53,1,.31.17-.68-2.22-2.17-2.14-2.87,1.08.38,1,1.2,2.36,2.06-.32.48.75,1.41.06,1.77C246.59,82,246.82,80.89,246.09,81.17Zm-6.9-6.34c.39-1.08,3.3,1.89,2.18,2.22A6.43,6.43,0,0,0,239.19,74.83ZM48.66,185.32c-.22-.91-1.24.7-1.92,1.21-.05-.57,1-2,1.59-1.56.57-.6-.36-.78,0-1.32,1-.43,1.78-1.78,2.71-2.32.15-.09.33.57.49.53.32-.09,2.11-2.33,1.6-.9-1.11,1.44-1.67,1.11-2.4,1.34a6.09,6.09,0,0,0-1.58,2.22c1.11.33,1-1,1.91-1.87,1.85-.18,5.8-5.66,8.44-7.26-4.37,4.73-10.4,10.48-14.94,14.65C44.81,188.78,48.39,186.58,48.66,185.32ZM42,196.22c.71.77-.92,1.35-1.1,2.07-.09.42,0,.26-.89.86-1.19,0-.73-.73.06-1.44S41.89,196.32,42,196.22Zm2.66-1.59c0-.26-.16-.75-.57-.44-.59.38-.17.8.16.51.2.83-1.3.87-1.8,1.75l-.45-.23a30.28,30.28,0,0,0,2.13-2.86c.36-.5.64-.92,1.08-1.45a18.76,18.76,0,0,1,1.45-1.58c1.07-1,1.72-.66,2.71-2.32.6-.14.38.16.49.53.75.18,2-1.17,3-2,1,.39-2.79,2.37-1.57,2.22-.1,1.15-1.43.41-1.93.54-.53,1-1.09.47-1.28.59-.41.26-.87,1-1.27,1.25-.2.1-.53-.48-1,.27-.29.36.06.34.33.35.82,0,.69-.64,1.92-1.21.08,0-.16.76,0,.67.7-.39,1.56-2.11,1.92-1.21-1.31,1.24-2.34,2.13-3.28,2.92-.53.46-.77.62-1.11.88Zm-.11-.89c.53-.38.89.08,1.51-.8C45.81,192.16,44.29,193.2,44.53,193.74ZM244.3,78c-1.3-1.29-.55-1.93-2.28-3.35a3.1,3.1,0,0,1,2.49,2.54c1.06.23,2.81,1.33,3,2.7.34,1.11-.67-1-1.56-1.59C245.24,77.66,244.84,78.07,244.3,78ZM39.1,201a3.83,3.83,0,0,1-1.77,1c-.63.19-1,.12-.41-.56C37.2,202.33,38.2,200.74,39.1,201Zm-.18-2.14L37.73,200C36.47,200.24,38.48,198.27,38.92,198.87Zm198.29-124,.93,1-.7.65-.93-.95C237.37,75.71,236.7,75.27,237.21,74.86ZM54.32,186.16c.21.68-1.1,1.79-.77,2.44-1.13,1.05-2.34,2.3-3.51,3.46-.58.58-1.16,1.14-1.72,1.64-.28.24-.55.48-.82.69a3.07,3.07,0,0,1-.55.34c0-.09.09-.19.14-.28a3,3,0,0,1,.23-.33c.23-.27.46-.54.71-.8.49-.52,1-1,1.57-1.5a27,27,0,0,0,3-2.95C53.45,187.79,53.38,187.14,54.32,186.16Zm105.6-96.84c-.12,1.9-2.24,3.3-4.6,5.52-.28-.84,1.47-1.64,2.38-2.67A33.7,33.7,0,0,1,159.92,89.32Zm102.55,8.21c-1.36-1.35-.22,1.23-1.64-.3,0,.37.54.9.1,1.13-.73-.45-.89-1.13-1.38-1.75s-2-1.65-1.21-1.92a4.86,4.86,0,0,1,1.38,1.75c.66.7.64-.51.53-.49.56-.1,1.42,1.41,1.64.3,1,1.87,2.11,1.41,2.8,2.86a.9.9,0,0,0-.84.17C263.5,98.73,262,97.83,262.47,97.53ZM61,180.94c0,1-1.08,1.66-1.9,1.87-.31.31,0,.46,0,.66-1.08.38-1.35,1.64-2.06,2.36-.36.36-1.24,1.6-1.6.9,1.57-1.1,1.6-2.53,2.37-3.33C58.79,182.38,59.74,182.35,61,180.94ZM145.5,320.43c-.26,1.12-4-1.75-2.67-2.38.62.64-.08.86.9,1.61.79.7.13-.8-.1-1.13-1.29-1.43-1.74.12-3.06-1.41.82-.34,2.57.19,3.72,1.4C145,319.3,144.69,319.61,145.5,320.43Zm-25.34-26.86c-.83-.69-2.41-1.59-1.51-2.24.51.68.06,1.05,1.2,1.92.84-.32-1-1.5,0-1.77.74.93,2.33,3.71,2.49,2.54.92,0,1.63,1.81,1,2.08-.43-.3-.82-1-1.25-1.27-.22-.14-.59.06-.66,0C121,294.52,120.59,293.92,120.16,293.57Zm2.4,6.9c-1.35-.59-3.28-3.22-4.85-4.61.71.15,1.41.3,1.85-.51,1.23.9-.06,1-.25,1.46.67,1,.72,0,1.15.14.27.07.92.56.62.64.41-.1.57-.36.39-1-.09-.29-.54-.24-.49-.15-.22-.4-.47-2-1.34-2.4.77,0,2,1.2,1.87,1.91,1.63,1.74,2.08,1.08,3.29,3-.48.39-1.39-.74-2.22-1.58l-.53.49c1.25,1.22,1.84.71,2.67,2.38.39.35.58,0,.84-.17,1,.75.28,1,.9,1.6.85.93,1.19.06,2.22,1.57-.59.54-1.56-.27-2.58-1.25-1.48-.78-1.6-.33-2.47-.12-1.44-1,.72-.79-.72-1.76C122.47,299.78,122.25,300.14,122.56,300.47Zm20.82,14c.73.18.45.76,1.07,1.43s1.14.74,1.42,1.11c.74,1,.83,1.86,1.66,2.72-1.77.06-1.76-2.65-3.6-3.34A3.77,3.77,0,0,0,143.38,314.5Zm-4.89-4c.19-.47,2,.93,1.74,1.43,1,.55,1.78.57,3,2-1.85-1.36-1.29.15-.25,1.45-2.28-.49-2.33-3-4.54-4.28C138.71,311.05,138.7,310.83,138.49,310.54Zm-28.61-27.46.93,1a1.55,1.55,0,0,1-2.12-.46C108.93,282.86,109.58,283.61,109.88,283.08Zm-2,2.45c.52.68.06,1,1.21,1.92.43.22.73-.05,1.29.62-.28.21-.55.42-.22.81C109.22,288.29,107.1,286.5,107.91,285.53Zm2.77,3.51c1-.32,1.43,1.56,3,2.69.16-1.33,2,2.26,3.47,2.85-.53,1-2.08-1.22-3-2.05C112.73,291.33,111.05,290.16,110.68,289Zm.25-1.46c.18-.15.52.26.8.47.31-.26.22-.66-.1-1.12.19-.28,2,1.62,1.15.14.78-.45,1,1.26,1.07,1.43.3.44,1,.84,1.25,1.27.12.19-.13.5,0,.65.34.6,1.2,1,.58,1.28.52.6,1.74,1.43.9,1.6-.56-1.05-1.74-2.09-2.46-3.19-.43-.68,0-2.13-1.51-2.23.22.87,1.92,2.22,1,2.72C111.86,289.15,112.65,288.48,110.93,287.58ZM147.08,319c0-.34-.06-.68.35-.33,1.46,1.18,4.22,4.5,6.55,6.67,1.25,1,.82,1.43-.18.17A53.3,53.3,0,0,1,147.08,319Zm-32-31.6c.84.35,1.33-.53,2.44.77-1.18-.72-.1,1.69-1.5.18-.16.53,1.52,1.65.54,1.93-.67-1.69-2.65-2.69-4-4.78,1.27.4-.37-.64.39-1C114.57,285.73,113.68,286.18,115.08,287.36Zm2.38-1c-.61-1.44,2.13,2.36,2.53,1.9.6,1.15,1.53,1.16,2,2.39-1.28-1.06-3.44-2.14-4-3C119.44,288.36,118.67,287.53,117.46,286.35Zm19,24.87c.55.75,1,.4,1.28.62.83.78-.07.83.72,1.77-1.29-.21-.8,1-2.3-.29.31-.73,1.06.07,1.37-.67-.72-.9-2.39-1.22-1.82-.13-.25.13-.4-.23-.31-.32l-.62-.63c.31-.75,1.19.56,1.5-.19-1.55-1.24-2.14-1.21-3-2.69.54-.46,1.36.11,2.12.45C136.46,310.17,135.85,310.39,136.47,311.22Zm38.83,36.17c-.25-.93,2.61,2.45,3.61,3.33C177.59,350.92,176.78,348.58,175.3,347.39Zm-15.66-9.11a6.47,6.47,0,0,0,2.14,2.87c-.67.4-2.71-1.66-2.35-2.06-.52.25-1.48-1-2.09-1.1.43,1.52,3.13,3,3.61,3.33-.07-.05-.28.38-.35.33a3.46,3.46,0,0,0,2,.61c.53.54.67.95.58,1.29a15,15,0,0,1,2.36,2.06c1.44,1-.73.79.72,1.76.49.39.33-.26,0-.65.63-.13,1.82,1.72,2.67,2.38-.63-.15-1.45-1-2.08-1.09-.08.19.14.48,0,.64a12.41,12.41,0,0,0,2.08,1.1c-.87.26,1.95,2.85,2.59,3.67a12.36,12.36,0,0,1-2.39-1.42c-.14.33.63.93,1.07,1.44-1.5-.51-5.32-4-7.25-6-.52-.54-.5-.68-.27-1-.4-.26-.53.05-1-.31-.73-.59-.15-.84-.28-1-.39-.39-.82-.25-1.28-.63-.74-.61-1.27-2-2.14-2.87-1.39-1.42-2.89-2.47-4.23-4-1.18-1.3-2-2.85-3.21-4.3a4.08,4.08,0,0,0-1.11-.79c-2.11-2.09-3.51-4.76-5.93-6a3.93,3.93,0,0,0-.58-1.28c.63-.11,1.9,2,2.26.93a19.55,19.55,0,0,0-3.37-1.72c-.87-2.07-4.08-4.33-5.88-6.68-.66-.85-.34-1-.72-1.76-.54-1-1.84-2-1.66-2.72,1-.52,2,1.66,2.67,2.38.95,1,2.16,2.07,2.81,2.86a1.53,1.53,0,0,0,.8.47c.2.26.49,1.19.58,1.28.36.4,1.29.95,1.73,1.43,1.07,1.15,1.24,1.64,2.67,2.37-.43.57-1.9-.66-.87.82.53.4.1-.33.52-.49.89.52,1.92,1.57,2.57,1.25,2.15,2.77,4,4.21,5.4,6.53,1.34,1.08,2.53,1.66,3.54,1.56a17.12,17.12,0,0,0,2.63,3l-.7.66C158.63,338.38,159.28,338.81,159.64,338.28ZM147.9,327.33c-.13.25.07.61.27,1,.81-.78-.55-1.22-1.52-2.24,0,.58-.77.93-.43,1.62C147.28,328,146.59,326.55,147.9,327.33Zm1.83,2.56c-.9-1.08-1.3-.4-2.09-1.1.18-.17-.32-.77-.62-.64,1.35,1-.16,1.12,1,2.08C148.38,329.28,149.33,330.55,149.73,329.89Zm1.83,2.55c.35-.63-.68-1.68-1.17-2.57-.75.2,0,.88-.57,1.14C150.5,331.84,150.82,331.4,151.56,332.44Zm12.35,14.64c.2.29.21.51,0,.65.86.68,1.75,1.49,2.26.93C165.27,347.71,164.5,347.09,163.91,347.08Zm-8.83-10c-1.18-.83-2.65-3.53-2.49-2.54C152.82,335.05,155.47,338.12,155.08,337.06Zm2.17-.2c.81-1.18-3.12-3.3-4-3C154.9,335.87,155.58,334.61,157.25,336.86ZM37,202.43c-.76.55.23.45.27.69a.8.8,0,0,1,.41.38,3.87,3.87,0,0,1-1.29-.38c-.09-.21-.21-.41-1.15-.29A2.12,2.12,0,0,1,37,202.43Zm166.51,177.1c-1.15.29-1.54-1.59-3-2.69C200.05,375.76,202.66,378.82,203.47,379.53ZM146,321.23c1.43,1,.12,1.06,1.21,1.92-1,.07-1.3-1.79-2-1.74C144.24,320.15,146,322.24,146,321.23Zm.6,3.7c-.21.54-.84-.37-1.15-.14a6.55,6.55,0,0,0-2.18-2.23C144.51,322.27,144.91,323.7,146.55,324.93Zm10.54,3.55,1.25,1.27a.9.9,0,0,0-.84.17l.62.64c.44.36.67,0,.35-.33.92-.11,1.07,1.33,1.39,1.75.35-.25,0-.73.39-1,.15,1.34,1.2,2.1,2.76,3.51-.51.28-1.58-1.41-1.95-.62a5,5,0,0,1-.58-1.28c-.22-.18-.66,0-.66,0a24.7,24.7,0,0,0-2.81-2.86C157.36,329.44,156.39,328.69,157.09,328.48ZM267.55,103.74c-.45.56-1.73-.56-1.91-1.26C266.07,102.17,266.8,102.93,267.55,103.74Zm-114.22,224c1.29,1.31,1.56,3,3,2.7,1.35,1,.46,1.31,1.52,2.23,1.08,1.37,2.26,1,2.67,2.38-.63,0-1.75-.89-3-2.05C155.84,331.48,152.81,328.81,153.33,327.73Zm-.79-.47c-1.64,1.06-2.78-2.63-4.76-3.47,1.14-.37.41,0-.1-1.13C149.64,322.94,150.25,326.21,152.54,327.26Zm.91,4c.55.58.86.48,1.42,1.1-.19,1.16-1.41-1.31-1.77-.77a45.73,45.73,0,0,0-4.33-5.1C148.75,325.53,152.59,330.38,153.45,331.28Zm61.12,34.21c-1.54-.1-2.87.57-4.77-.41-.29-.15-1.12-1.06-1.73-1.42a7.59,7.59,0,0,1-3.16-2.53,15.63,15.63,0,0,0-2.08-1.1c-4.33-4.71-7.68-7.1-10.29-10.49a4.12,4.12,0,0,1,1.29.63c.33-.73-.6-1.06-1.38-1.75.31-.75-.93-2.77-1.79-3.2a8.83,8.83,0,0,0,1.74,3.84c-1.65-.84-2.16-2.47-3.91-3.65,1.14,0-.32-1.49,1.33,0a4.14,4.14,0,0,0-1.7-2.07c-.49.58.76,1.7-.29,2.1l-1.56-1.58c2.24,1.83.78-1.45-.54-1.93-.31.21.61.75.75,1.11.42,1.06-1.79-1.7-2.84-2.21,0-.37-.53-.9-.1-1.13-1.37-.55-2.09-2.7-2.9-4,1.87,1.38,3.88,3.25,5.14,2.5.3.38-.13.54.28,1,1.05.84.07-.65.7-.66,1,1.33,1.7,1.32,2.67,2.38-.22.82-1-.42-1.6-.94-1.1.47,1.81,2.61,2.49,2.54,1.07.92.17,1.22,1.52,2.23.49.17,1,.32,1.46.47.38-.38-1-1-.93-1-.37-.45-.15-.81-.59-1.28a10.62,10.62,0,0,1-2.49-2.54c3,2.58,6,5.38,8.94,8.09a2.05,2.05,0,0,0-1.75,1.64c.82,1.09,1.21.65,2,1.74,1,.71-.5-1.15.57-1.14l1.56,1.59c.67-.88-.33-1.63-1.66-2.72,1.44.14,3.62,2.86,5.38,4.11a.93.93,0,0,0-.84.18c.75.81,1.24.73,1.91,1.26a1.18,1.18,0,0,0-.27-1c1.85.82,4.18,3.31,6.31,5.06-.61-.12-.77.06-.22.81s1.93.71,1.33,0c.42-.32,1.39,1.28,2,1.74C214.91,363.11,214.12,364.11,214.57,365.49Zm-24-20.75c.59-.49-1.57-3.12-2.32-2.71C188.81,343.17,189.54,343.28,190.52,344.74Zm5.78,5.55c-.48-1.4-.85-1.76.47-2.26-1.42-1.82-1.5.51-2,0,0-.89-2.4-3.46-3.15-2.54.78,1.19,1,.52,1.6,1C194.29,347.93,194.58,349.83,196.3,350.29Zm7.6,5.69c-.94-1.55-1.6-1.51-2.36-2.06-.51-.37-1.8-2.23-1.91-1.26-.28.42,1.32,1.44,1.21,1.92C202.11,354.2,202.67,355.65,203.9,356Zm-1.68.35c-.55.33.2,1.08.72,1.76C203.84,357.86,203.09,357.11,202.22,356.33Zm3.59.91a2.06,2.06,0,0,0-1.78-.78c.37.48.35.84,1.08,1.44Zm1.46.46c-.38-.14-2.05.28-.74,1.3C207,359.49,208.51,358.49,207.27,357.7Zm5.06,3.79c.34.33.47.05-.13-.48-.66.45-.48,1.17.37,2.09C213.4,362.86,211.78,361.83,212.33,361.49ZM54.06,221.37c-.57-1-2.51-2.4-2-3,1.49,1.28,1.46,2.07,2.95,3.35C54.77,221.77,54.3,221.15,54.06,221.37Zm-.23-1.61c-.68-1.43,2.19.73,2.22,1.58C55.33,221.35,54.8,219.51,53.83,219.76Zm10.63,10.15c-.51.21-3.95-1.56-4.09-3.48a16.84,16.84,0,0,1-2.22-1.58c.09-.2.29,0,.49.16.21-.08,0-.28-.14-.48,1.73.22,3.34,4.92,4.58,3.63C64.1,228.93,63.64,229.22,64.46,229.91ZM51,217.54c-1.36-1.68-2.1-1.16-3.46-2.85.77-.68,2.37,1.6,3.37,1.73.34.64,1.17,2.53-.12,1.93-.51.54,1.76.74,1.25,1.27-.73.6-1.91-.94-2.54-1.89C49.78,216.93,50.52,217.72,51,217.54Zm7.37,9.57c-1.82-2.19-2.87-2.91-4.81-5.25,1-.48,2.52.56,4.17,2.19-.2,1.16-1.41-1.31-1.78-.78C56.29,224.82,58.74,225.73,58.35,227.11Zm67,67.67c.24-.35,1,.12.53-.49,1,0,1.27,1.54.72,1.76ZM45.18,213a2.75,2.75,0,0,1,.46.44l.56.73A8.58,8.58,0,0,0,48.1,216c-.51.28-1.58-1.41-2-.62-.27-.44-.78-1-1-1.42S44.81,213.24,45.18,213Zm-5-9c.91.14,2.74,1.68,2.31,2.38-.88.41-.36-.34-.53-.55C41.54,205.33,40.25,204.51,40.18,204ZM62,230.44c2,2,1.34-.83,3.23,1.24-.66.27-1.6-.43-2.16.19-1.28-1.31-3.19-2.35-2.77-3.5C61.06,229.45,63.42,230.53,62,230.44ZM43.9,207.17c1,.22,1.61,1.55,2.45,2.19A4.59,4.59,0,0,1,43.9,207.17Zm-.06,3.06c.15.79.71.58,1,1.42-.46.24-1-.68-1.47-.48C43.25,210.78,43.46,210.49,43.84,210.23Zm-6.26-5.4c.88,0,.75-.37.13-.91A2.27,2.27,0,0,1,39.34,205a3.17,3.17,0,0,0,1.38,1.33c-.18.28-.87.4-.51.87.81.6.38-.35,1.09-.26,0,.23.16.54.53.89-.27.36-1.5-.39-1,.32-.43.06-2-.92-1.58-1.27-.43-.44-1.06-.14-1.46-.81.53-.2.88.24,1.25.59.52,0,.28-.3.64-.38-1.23-.7-2.78-.81-4-2.05,2,.5.31-.33-.57-.93.58,0,1,.27,1.57.22C37.51,204.16,36.68,204.16,37.58,204.83Zm10.83,6c.36,1.09,1.9,2,3.12,3.18.57.55.49.84,1.07,1.43s.85.49,1.42,1.11c2.36,2.52,5.57,5.84,8.73,8.9-1,.82-2.4-1.82-3.16-2.54-.93-.89-1.91-1-2.35-2.06-.44-.36-.67,0-.35.33-.76.1-1.24-1.53-.72-1.76-2.89-2.52-4.54-4.76-6.9-6.35C48.88,212.27,48.08,211.36,48.41,210.81Zm80.13,86.5c-.37-1.27,2.47,1.3,2.84,2.21C130.74,299.86,129.19,297,128.54,297.31Zm-.64,7.91c-.55-.66-.78-1.7-1.52-2.23.52-.84,1.92,2.33,1.69,2.07.24.27,1.68,1.38,2.67,2.38a15.43,15.43,0,0,0,2.49,2.54c-.23.36.14.92.9,1.6-1.48-.52-2.08-2.45-3.57-4C129.62,306.63,128.64,306.13,127.9,305.22Zm.52-6c-.3.74-1.29-.9-1.5.18-.54-.53-.67-.94-.58-1.28C127.05,298.57,127.45,297.89,128.42,299.25Zm-2.08-1.1c-.86-.93-.77,1.46-1.81-.13,0-.82,1.64.25.87-.82C125.9,296.91,126.65,297.67,126.34,298.15ZM124.78,302c1,.93.65,1.77,1.69,2.08C127.31,305.31,123.08,302.31,124.78,302Zm-42.55-59.5c1.34,1.28,1,1.46,2.18,2.23-1,1-1.67-2.09-2.44-.77C80.75,243.1,82,243,82.23,242.54Zm34.62,34.63c2.22,1.16,3.82,4,5.61,5.72,1.43,1.34,2.86,1.63,3.47,2.85-.4.55-1.45-1-2.22-1.58s-1.4-.82-1.91-1.26-.29-.63-.44-.8c-.35-.37-1.64-.87-1.39-1.75A8.5,8.5,0,0,1,116.85,277.17Zm13.65,28.66c-.52,0-1.25-.79-1.9-1.26C129,303.78,130.32,305.09,130.5,305.83Zm5.58.88a13.12,13.12,0,0,0,1.34,2.4c-2.28.26-4.45-3.27-6.62-5.38-.4-.35-.58,0-.84.17-.21-1.5-1.71-1.69-3-2.7-1.06-.91-.35-1.28-1-2.08,1.47.61,2,2.45,3.6,3.33.83.31,1.41-.24,2.44.77-.2.36-.6,0-.84.18C133.26,305,134.63,308,136.08,306.71Zm-1.75-9.33c1-.4,2.23.84,3.33,2.37.7,0,3.34,2.07,2.31,2.7C138.15,300.66,135.28,298.66,134.33,297.38ZM328.26,243.6c1.2-1.82,3.89-4.06,5.39-6A26.39,26.39,0,0,1,328.26,243.6ZM41.43,176.28c.35.76-1,1.43-1.75,2.05C39.33,177.57,40.65,176.9,41.43,176.28ZM40,179.34l2.86-2.8C43.41,176.9,40.45,180.13,40,179.34Zm-1.32-2.06c-.3-.77.63-1.06,1.42-1.74C40.51,176,39.33,177.12,38.7,177.28Zm21.19-17.09c-.23-.52,1.5-1.6,2.06-2.35C62.28,158.79,60.79,159.22,59.89,160.19Zm-23.3,16.13a22.92,22.92,0,0,1-2.68,2.75l-.61.53c-.22.19-.33.28-.7.62-.62.59-1.25,1.21-1.92,1.91.08-1.37-2.32,2.23-2.27.89a28.68,28.68,0,0,0,2.6-2.33l1.14-1.13c.22-.21.29-.26.42-.37s.23-.19.35-.28.24.38.33.35c.4-.12,1.15-1.34,1.58-1.56.34-.62-.33-.17-.33-1,1.31-.19,1.67-1.64,3.18-2.46.33-.38,0-.34-.16-.17-.19-.84,1-.63,1.43-1.07.5.25-1.49,2.31-.29,1.64-.21,1-1.87,1.3-1.61.23C36.93,175.34,35.93,176.06,36.59,176.32ZM32.7,187.21c-.2-.41.53-1.25,1.5-2.19l1.54-1.46.64-.61c.17-.17.33-.33.46-.49a1.39,1.39,0,0,1-.35.95,10.73,10.73,0,0,1-1.17,1.12A12.54,12.54,0,0,0,32.7,187.21Zm30-34.46c.36.5,1,.08,1.61-.23a2.16,2.16,0,0,0,.15-1.15,13,13,0,0,0,2.38-2c-.35,1.18.38.69-.13,1.81-1.49,1-.13-.27-.65-.71-1,1.18-.33,1.87-2.37,3.34-.81-1.07-1.06.11-2.4,1.34-.69-.77.35-2,1.72-3.37C63.38,152,63,152.35,62.67,152.75ZM31.26,183.58c-.16.83-2.85,2.4-4.38,4.32C26.33,187.37,30,184.64,31.26,183.58Zm1.79-6.48c-.41-.33,1.06-1.19,1.43-1.73C35,176.17,33.83,176.9,33.05,177.1Zm35.33-30.62a4.54,4.54,0,0,1,1.42-2.39C70.31,144.61,69.09,145.62,68.38,146.48Zm9.06-8.55a3.33,3.33,0,0,0-1.11.76,4.45,4.45,0,0,1,1.41-2.39C78,136.74,77.2,137.48,77.44,137.93ZM31,188.91c-6,5.78-7.47,7.36-13.75,13.23-1.86,1.35,1.3-1.59,2.33-2.63,3.18-3.22,8.4-8.23,11.88-11.72C31.94,187.86,31.48,188.38,31,188.91Zm59-64.28c1.31-1.41,1.64-.77,1.77-.06C90.85,125.58,90.56,124.65,90,124.63Zm12.33-16.13c.79-.86,1.43-1.27,1.76-.72C103.29,108.65,102.65,109.06,102.31,108.5ZM90.08,120.83a30.2,30.2,0,0,1,6.52-6.06c1.08-.89.22-1.24,1.58-2.22.07.2-.16.49,0,.67,1.89-1.5,2.15-2.53,3.17-3.78.4,1.26,1.59,0,2.57-.51,0,1.58-2.89,2.85-3.82,3.08.41.86-.4,2.94-1.56,3.54-.59-.35,1-1.32.78-1.77-.82-.23-1,1.13-1.11,1.42-.47.14-1.29,1.7-1.9,1.87-.06,0-.3-.38-.33-.35-.42.39-.46,1-.94,1.6s-.61.28-.81.45c-.45.4-.43,1.21-1.58,1.55-.21.07-.6.4-.8.45C91.25,120.93,91.69,119.2,90.08,120.83Zm1.76-.72c1.3-1.55,3.4-1.54,2.22-2.84C93.15,118.26,91.41,119.5,91.84,120.11ZM69.57,150.36c.39.76-1.28,1.77-2.06,2.36C67.28,152.19,69,151.11,69.57,150.36Zm-.18-1.5c-.27,1-2.58,2.65-3.65,3.91C66,151.74,68.32,150.12,69.39,148.86Zm44-41.51c0-1.17,1.18-1.36,2.38-2.66C116.94,104.17,114.06,106.64,113.42,107.35ZM102.62,118c.83-1.42,2.58-2.86,4.28-4.54,1.44-1.41,6.64-6.38,4-3.56C108.86,112,104.86,115.63,102.62,118ZM209.88,36c.17.94-.34.42-1-.38s-1.57-1.93-2.06-2.08a2.26,2.26,0,0,1,2.19,1.9C209.37,35.85,209.74,36.25,209.88,36Zm3.63,4.74a24.82,24.82,0,0,0-3-3.42C211.4,37.43,214,39.78,213.51,40.74ZM214,44c.54.61-.5.65-.65.7-.55-.51-.41-1-.77-1.48C213.15,42.89,213.25,44.67,214,44ZM18.35,205.62a36.5,36.5,0,0,1,6.49,6.58,22.88,22.88,0,0,1-3.78-3.51C20,207.45,19,206.31,18.35,205.62Zm86.39-96.47c-1.29-1.67,1.36-4.24,4-5.56.38-.49-.26-.33-.65,0,.4-1.44,2.31-1.79,3.19-2.46.39-.38-.07-.35-.17-.18a10.17,10.17,0,0,1,3.66-3.25c.23-.73,1.77-1.83.94-2.26,1.73-.72,2.91-2.39,4.61-4.18,1-.54,1.55.17,2.72-1,.44-1.11-2.11,1.37-1.61-.43.58-.68,1-.94,1.28-.58,2.06-2.21,5.22-4.73,6.51-6.72.66-.71,1.14-.85,1.44-.41-.13-1.08,1.65-2.86,3.49-4.09-.1-.78,1.42-2,2.05-3,.49.23-.15.78-.63,1.29,1.31-.29,1.76-2.2,3-2.63.33-.39,0-.35-.16-.17-.3-1,.63-.38,1.12-.77l1.59-1.55c.54-.49,1-1.1,1.59-1.56A4.21,4.21,0,0,1,144,69c.35-.35.37-1.22.78-1.77s.73-.36,1.11-.76.13-.5.47-.8c1.31-1.15,2.45-1.6,3-2.63.07-.12-.67.26-1,.59,1.18-1.63,3.07-2.74,4.48-4,.52-.48.85-1.2,1.43-1.74a7.22,7.22,0,0,0,1.43-1.07c.41-.46-.18-.32,0-.66.39-.76,1.77-1.45,2.23-2.18.21.38-.18.93-.95,1.59,1.52-1,.18,1.07,1.31.74.22-.28.15-.48.47-.79.84-1-.66-.08-.66-.7s.75-.62,1.27-1.25c.11-.13.57-1.23.63-1.29s2-.87,1.11-1.42c.61-.79.76-.11,1.28-.58s.47-.73.3-1a8.37,8.37,0,0,0,3.82-3.74,15.2,15.2,0,0,0,3-2c-.16-.42-.56-.09-1,.27.29-.81,1.21-1.07,2.06-2.36.56-.6-.36-.78,0-1.32,1.24-.72,1-1.78,1.41-2.4.25-.34,1.12-1,1.59-1.55a45.62,45.62,0,0,1,4.48-4.68l4-3.82,4.7-4.51c1.16-1.12,2.78-3.65,3.84-3.46,1.22-1,.61-1.25,1.45-2.11,4.76-4.54,8.47-8.49,11.9-11.57,1.06,1.17,2.09,2.36,3.08,3.6A13.23,13.23,0,0,1,204,6.79a19.86,19.86,0,0,0-3.25,3.33C200.09,12,202.62,9,203.89,7.7l.11-.11a16.76,16.76,0,0,1,1.41,1.76c1.24,1.15,1.84,1,2.65,2,2.69,3.49,5.94,7,7.88,7.64,2.25,2.5,4.38,4.51,6.3,6.4A34.9,34.9,0,0,1,227,30.9c.23.15.46.31.69.49a5.78,5.78,0,0,1,.48.33,11,11,0,0,1,1,.78,25,25,0,0,1,2,2c1.3,1.45,2.57,3,3.61,4.27,1.43,0,3.27,3,5.47,5.23,1.68,1.7,3.62,3,5,4.44,2,2,4,4.07,5.61,5.72s3,3.94,4.85,4.6c.26,1.37,1.47,1.54,2.49,2.55.52.51.36.69.76,1.11,1.69,1.8,4.17,3.66,6.27,5.71,1.13,1.11,1.9,2.35,2.94,3.34.67.64,1.52,1,2.22,1.58s1.24,1.66,2,2.39c1.09,1,2.57,1.69,3.29,3,.31.31.46,0,.66,0a14.89,14.89,0,0,0,2.32,2.71c.57,1.35.49,2.49,2.55,4.31.1,1.14-2.11-.51-2.69.69-.1.82,1.63,1.66,2.18,2.23.63.33.18-.34,1-.34,1.3,1.07,0,1.32.85,2.24,1,1.36,1.33.5,2.22,1.58-.35.25,0,.74-.39,1,.94,1.24,1.46,1,2.36,2.07-.19.35-.6,0-.84.17,1.26,1.06,2.46,1.88,2.63,3,.38.38.36,0,.18-.16a12.31,12.31,0,0,1,3.56,4c.72.47.74-.27,1.11.79A5.3,5.3,0,0,0,296,104c.25.59-.18,1,.24,1.6a3.54,3.54,0,0,1,1.11.79c.42-.38,0-1,.74-1.3.8.81.25.51,0,.65.69,1.06,1.1.56,1.73,1.42s.14,3,1.83,2.55c.16-.28-.7-1.16-.93-1-.34-.69.41-1,.43-1.62a15.13,15.13,0,0,1,2.66,2.38c-.52.24-1.68-1.77-2.08-1.1.75,1.58,3.53,3.61,4.58,3.64.83,1.22,3.12,2.89,2.1,3.52,1,1.36,1.33.5,2.22,1.58.43.7-.37,0-.8-.47-.42.65,1.28,2.7-.47,2.26a4.85,4.85,0,0,0,2.19,2.22c0-.51-.75-1.26-1.21-1.91.76.26.51-1.45,2,0s-.6-.11-.71.65c1.09,1,1.95.83,1.87,1.91,1.05.84.08-.66.71-.66.28.9,1.93,2.22,2.94,3.34.34.87-1.29.14-.26,1.46.53.55.94.7,1.29.62.18-.3-.87-1-.59-1.28.27-.87,1.25.74,1.91,1.26.39-.91-1.12-1.39-2-2.38,1.43-.33,2.34,2,4.09,3.48-.34.11-.83-.3-1.15-.14,2.35,1.76,1.48,2.51,1.93,3.68.28.22.48.15.79.47.09-1-.46-2.2,0-3.07.54.84.89,1.6.36,2.1a2.33,2.33,0,0,0,2.09,1.09,1,1,0,0,1-.08,1.29c1.1.92.77,0,2.05,1.75.41.56,1.15,1.37.89,1.6,1.28,1.05.4-.63,1.5-.19l-.93-.95c.65,0,2.38,2.19,1.34,2.4,1.52,1.28,1.64,2.12,2.94,3.34-.39-1.09-3-3.73-1.44-3.53.91.87.2,1.23,1,2.08.29.23.49.15.8.47.35-.25,0-.73.39-1-.57-.73-.94-.73-1.42-1.11-.11-1,2.26,1.64,2.49,2.54-.27.34-.75,0-1,.34,1.51.94,3.57,3.11,3.39,4.14.92.32.33-.82.25-1.45,2.22,1.28,2.25,4.21,5,5.73,1.09.86-.23.95,1.21,1.92.84,1.16,1.1.23,1.77.77,1.14,1.87,2.41,2.53,2.9,4,.43.22.73-.05,1.29.63.59.27,1-.14,1.63.29-.13-.55.09-.61.66,0-.44.58-1.93.11-.91,1.47.84.78-.13-.72.7-.66,1.1,1.33,2.3,1.65,3.16,2.54,1.15,1.18,1.37,2.57,2.9,4,.67.83.62-.92,1.46.46,1,.93-.07.36,0,.65s.94,1.09.41,1.44c1.46,1.09,1-.16,2,0a12.7,12.7,0,0,0,3.43,3.5c.31,1-.6.49-1.19.5.15.88,1.94,1.94,3.3,3-.88.3-.57.94-2,0-.14.32.63.93,1.07,1.43.71.68.88-.56,1.36-.67.95,1,1.38.18,2.4,1.42.39.34.58,0,.84-.18a32.63,32.63,0,0,0,2.81,3.09l1.78,1.8c.71.73,1.39,1.45,2,2.18.49.49.64.23.91.24,2,2.19,3.82,3.64,5.05,5.1.08.1-.53.1-.49.2.22.5,2.12,1.93,2.48,2.51.61.52.86.19,1.53.86,1.5.41-1.44-1.72,0-1.33,3.11,2.18-.33,1.67,3.56,4.29-.33.22-1-.4-1.37-.36,1.14,1.6,3.67,2.7,3.48,3.53.64.58,1,.38,1.45.43a37.71,37.71,0,0,0,4.19,4.4c-.95,1-1.82,2.1-2.88,3.34-.33-.16,1.45-1.55.93-1.59a6.16,6.16,0,0,0-2.42,2.61c-.51.93-.42,1.37,1.27-.47.44.32-2.49,2.59-3.41,3.7-.35-.35-1.09.19-1.62.26-.53.59,0,.35.28.06-.14.73-1.64,1.94-3,3.05s-2.53,2.17-2.25,2.79c-1.55,1.69-1.87.81-3.56,2.84.2.52,1.14-.49,2-1.29,0,.77-3.07,3-3.86,3.47-.84.93,1.36-.18-1,2-1.05,1.2-1.26.77-1.59.56a12.37,12.37,0,0,0-1.25,1.26c-.19.22-.37.45-.55.69a5.9,5.9,0,0,0-.47.63,13.39,13.39,0,0,1-1.31,2c-.17.2-.53.21-.8.45-.44.38-.37.7-.47.8-.79.75-2.24,2-3.5,3.43-.55.6-1.62,1.6-2.22,2.18-.83.79-1.11,2-2.23,2.18a2.93,2.93,0,0,0-1.43,1.07,3.54,3.54,0,0,0,0,.66c-.11.12-3,1.38-2.38,2.67-1.21,1.27-1.85,2-3.65,3.91a11.69,11.69,0,0,0-1.1,1.43c-.45.38-.82.14-1.29.58-1,1-.32,1.43-1.58,1.56-.17.49-.32,1-.47,1.46-4.6,4.7-9,9.35-12.69,13.79a2.11,2.11,0,0,1-1.12.1c-2.21,3.86-5.43,6.82-8.23,10.09-.89.76.38.92-.78,1.77-.37-.7-1.07-.33-1.78.06.27.77,1.19-.52,1.46.25-.76.8-1.51,1.55-1.92,1.21a1.1,1.1,0,0,0,0,1.32c-2.07,2.3-3,2.9-5.4,5.3a3.1,3.1,0,0,0-.85-2.86c-.75.58-.37.84-.14,1.15-1,.77-1.53.19-2.26.19-1.23,1.87-3.25,2.58-3.48,4.09-.62.79-.77.11-1.28.58-.31.39.11.56-.31,1-1,1.22-1.47.94-2.39,2-.53-.17-1.11-.18-2.08,1-.18,1.29,2.79-2.35,1.13-.1a11.15,11.15,0,0,1-1.27,1.25,16.9,16.9,0,0,0-1,1.59c-.52.58-.85.49-1.43,1.07-2.45,2.45-5.21,5.8-6.83,7-.35.39,0,.58.18.83a17.31,17.31,0,0,0-5.23,6.14c-.58.72-1.21.84-1.75,1.38s-.44,1.09-.63,1.29c-.37.39-.74.11-1,.27s-1.32,1.61-1.43,1.73a12.23,12.23,0,0,1-1.74,2.05c.32.14.93-.64,1.43-1.07,1.08-.44-2,2.17-2.69,3,.32-1.16-1.46.36-.5-1.19-.74-.19-.16,1-1.43,1.73-.06.83,1.44-.14.66.7-1.23,1.26-.15-.37-1.13.1-.66.51,0,.8-.14,1.15s-1.89,1.44-.95,1.6a53.69,53.69,0,0,1-4.61,4.18c-.36-.7-1.33,0-1-1a28.64,28.64,0,0,0-5.72,5.61c-.22.33-.12.44,0,.66-2.41,2.82-6,5-6.83,7-1.51,1.21-3.9,2.94-3.17,3.78-1,.67-1.49,1.77-2.37,2.67-.6.61-1.61,1.18-2.07,1.7a8.26,8.26,0,0,0-.63,1.28,54.35,54.35,0,0,1-4,4.23c-1,1.13-3.11,3-4.6,4.85-1,1.21-1.39,2.3-2.37,3.33a26.51,26.51,0,0,0-3.33,3.6c-.27-.76-.92-.32-1.3-.74,1.32-1,.07-1.35.93-2.26-.74-.19-.76,1.22-1.9,1.87.27-1.33-.42-2.58-2.13-1.62-.22.13-.39,1-.62,1.29-.61.72-2.3,2.07-3.5,3.43s-1.2,2.22-2.69,3c-.13,1.31-3.58,4.35-5.38,6.62-.56.71-.56,1.33-1.1,2.08-1.51,2.12-3.8,3.52-5.56,5.13-.47-.85-1.49.07-2.11-.3-2,1.47-3.22.48-5.13,1.68,0-1.27-.68-.68-1.77.06.36-2-2-.41-2.76-1,.56-.45.39-.7.79-1.11-.32-.14-.93.64-1.44,1.07.35-1.18-.38-.69.14-1.81-.17-.41-.56-.09-1,.27.32-.52-.21-.7,0-1.32,0-.14.62-.5.64-.62.06-.6-.92-.64-.51-1.19.19-.24.6-.12.8-.45a2.7,2.7,0,0,0,.46-2.12c1.23-.94,1-1.46,2.06-2.36.34-.39,0-.58-.18-.84,2.17-.84,5.05-3.95,7-4.2l2.55-2.5c-.88-1.17-2.35-.46-3.41-1,2-2.21-1.21-.87-.84-2.2l1.27-1.25c-.38-.42-1,0-1.3-.74,1.86-1.58,2.1-1.88,3.66-3.25a2.17,2.17,0,0,0,1.93-.55c1.06-1.13-.47-.45.14-1.15l1.27-1.24.66.7c1.06-1.43,2.7-1.64,2.38-2.67-.29-.25-1.59,2.2-2.08,1l9.84-9.66c.36-.47.22-.8.63-1.28-.38-.42-1,0-1.3-.74,1.36-1.69.78-2,2.85-3.47-.17-.84-1,.38-1.6.9-1.15.84.35-.79.79-1.12,2.37-2,5.49-6.28,7.16-6a4.86,4.86,0,0,1,2.05-3c.17.32-.89,1-.62,1.28.19.09.48-.13.64,0,.66-.85,1.26-1.69.94-2.26,2.06-2.33,4.37-3.42,5.72-5.61-1.14,2.12,1.72-.9,1.59-1.55,2-2,4.41-4.14,6-5.93,4.38-4.82,11.07-9.93,13.66-14.06.68-.42.34.28.49.53.34-.39.6-.52.8-.45.89-.9.45-1.07,1.26-1.91.54-.56,1.68-.95,2.23-1.52s.44-1.24,1.26-1.91,1.15-.84,1.45-.41c.49-.87.06-1.49,1.73-2.7.1.26-.52.74-.31,1,.67-.07,1.32-1.32,2.39-2,.13-.08.91-.22,1-.27,2.47-2.11,4.6-5.1,6.2-6.41a2.23,2.23,0,0,0,.14-1.14c1.83-.58,3.61-3.25,5.08-5l.49.52c.58-.82,1.63-1.79,1.42-2.39,1.13-.78.07.83.34,1a8.88,8.88,0,0,0,1.73-2.7,15.46,15.46,0,0,0,4.12-4.72c.56-.37,1-.52,1.6-.89a89.66,89.66,0,0,1,14.28-15.35c.61-.91,1.24-1.83,1.73-2.71a39.28,39.28,0,0,0,4.14-3.39l.66.7c.86-1.41,2.09-4.07,3.8-4.4.07.84-1.66,1.63-2.23,2.18-.63.92,0,1.48-1.24,2.57a2.67,2.67,0,0,0,1.59-.89c-.75,1.29.54,1.55.36,2.34-.43,1.87-2.56,3-3.79,5.06-.68.52-1.43,1.28-1.76.72-.39.55-.56,1-.95,1.6.37.23.92-.14,1.6-.9-.36,1.12-2.86,3.08-3.81,3.74-.16-.9-.28-.61-1.14-.56-.75.82-.44,1.7-1.74,2,.24.16.22.38,0,.66.58.47,2.36-2.84,2.72-1.65a26.89,26.89,0,0,1-4,3.56c-1.06,1.31.55.64.18,1.5,1-.93,1.41-2.17,2.55-2.49a1.13,1.13,0,0,1,0,1.33,2.08,2.08,0,0,0,1.44-.41c.85-1.45-1,.06-1.14-.57.76-.58.37-.84.15-1.15.85-1.08,1.32-.95,2.07-1.69.12.33-.66.92-1.11,1.42,1.22.3,1.61-1.77,1.9-2.53,1.17-1.18,2-1.08,2.88-1.48.54-.75-.74-1,.61-1.95a2.53,2.53,0,0,1,1.77-.06c.27-.59-.14-1,.3-1.64,2.88-3,7.05-6.76,10.81-10.59.78-.67-.12-.85.46-1.46a2.66,2.66,0,0,0-1.6.89c.34-1.41-1.39-.74-2.11-1L335,243l.64-.63c0,1,.68,1.27,1.94.12-.27-.77-1.3.86-1.46-.25a5.6,5.6,0,0,0,3-3.29c-.9.19-1.17,1.22-1.9,1.86-1.3,1.15-2.37,1.34-3.52,2.11.23-.67.28-2.05-1-1.05a24.65,24.65,0,0,0,2-3.69c.75-1,1-.27,1.6-.89,1-.7,1.48-1.73,2.37-2.67.51-.53.72-.35,1.12-.76,1.06-1.09,1.67-2.12,2.7-3,2.06-1.74,5.87-5.75,7.94-7.79.58-.57,2-1.07,1.74-2,.75-1,1-.28,1.6-.9.6-.47.47-.73.31-1,.88-1.16,1,.15,1.76-.73,1.29-1,1.36-2.16,2.54-2.49.35-.39,0-.58-.17-.84a9.71,9.71,0,0,0,2.09-1.41c.37-.32.77-.67,1.15-1s.56-.55.84-.86a1.36,1.36,0,0,0-.12-.89c1.72-1.61,5.38-5.09,8.53-8.31-1.35-1.32-2.61-2.52-3.75-3.55-.65-.58-1.44-.92-2.13-1.5-1.45-1.22-2.33-2.75-3.75-3.52.84,1.16.14,1.1-.92.09.08.07.08.06,0,0l-.13-.15-.37-.39L357.23,191c-2.05-2.1-4.56-4.65-5.93-6-.53-.5-.35-.71-.76-1.11-.56-.57-1.6-1.22-2.35-2.07s-1-1.4-1.39-1.75c-.75-.72-1.76-.79-3.15-2.53a4.17,4.17,0,0,1-.59-1.28c-.49-.47-1.47-.61-2.08-1.1-.19-.15-.37-.75-.76-1.11-.83-.8-2-1.34-2.85-2.22s-4-4.37-5.29-5.4c-.39-.31-.76.12-1.29-.63.2-.35.6,0,.84-.17-.54-.59-.87-.47-1.42-1.11-.26.14-.24.37,0,.65-.62.32-1-1-.27-1a6.31,6.31,0,0,1-2-1.75c-.23-.26-2.06-1.41-2.53-1.89s-1-1.39-1.7-2.07c-1.92-1.86-4.49-4.12-6.09-5.88-.77-.84-2-1.43-2.84-2.21-.52-.51-.41-.67-.76-1.12-.84-1-2-1.64-2.67-2.38a22.34,22.34,0,0,1-1.21-1.91,25,25,0,0,0-1.69-2.07,10.52,10.52,0,0,0-1.29-.63c-.54-.5-.37-.69-.76-1.12s-.84-.5-1.42-1.1-1.05-1.47-1.7-2.07c-.94-.88-4-2.68-5.16-4.92-.59,0-3.06-2.13-4.89-4-.45-.45-.89-1.29-1.38-1.75-3.45-3.3-7.39-6.35-10-9.53-.56-.67-.63-1.67-1.69-2.07-.16.25.42.72.76,1.12-1-.39-4-3.28-3.08-3.82-.66.2-1-.6-2.22-1.58a8.65,8.65,0,0,1-3.16-2.53c.23-.5.78.14,1.29.62,0-.34-.08-1.34.84-.17.32-.7-.84-.52-1.25-1.27a1,1,0,0,0,1-.34c-.73-1-1.05-.59-1.73-1.42,1.06-.31-.09-1.79-1-2.09-.2,1,1.06,2.39.47,3.22-.74-.23-1.63-1-2.27-.93-.23-.66.2-1.11-.05-1.77-.94-.89-1.59,0-.39,1a2.23,2.23,0,0,1-1.31-3c-.95-.24-2.2-1.53-2.78-.44-.43-.47-.86-.93-1.12-.79-.29-1-1.81-2.33-1.3-3.05.86.79,1.62,1.54.72,1.77l1.56,1.58c.93-.36-1.3-1.72-.37-2.09,1.17.82.91.77,1.38,1.76.5-.65-.87-1.89-.5-2.58-.93-1-2-.85-2.36-2.06.83-.73,3.55,1.07,3.62.27,1.07.42,1.53,1.85,3,2.69-.86-.2-.19.24-.7.66,1.41,1.56,1.78-.51,3.24,1.24.8.81.24.51,0,.65.59.79.78.14,1.28.62,1.64,1.25.74,1.7,2.14,2.87,1.3.81-.21-1.06.57-1.14-.11.48,1.49,1.5,1.21,1.92.79.71.13-.8-.1-1.13,1.06.51,2.05,2.42,3.47,2.85,0-1.16-1.4-.83-2-1.74.27-.52-.9-1.84.25-1.45-1.2-1.65-1.7-.8-2.84-2.22-1-1.15.18-.66-1.38-1.75a17.53,17.53,0,0,1-1.91-1.26,13.34,13.34,0,0,0-1.66-2.72c-1.24-.9.82.94-.21.81-1.76-.68-3.59-4.26-4.71-4.12a5.35,5.35,0,0,0-1.83-2.55c1.47-.34,1.36,2.13,2.66,2.38-.4-1.74-1.42-3.67-2-5.46-1.69-.59-.11,1.71.5,2.58-.75.46-2.45-2.42-2.92-.93-.54-.53-.67-.94-.58-1.28-1-.12-2.43-1.78-3.78-3.16.45-.26,1.42,1.36,1.77.77-.46-.87-1.06-1.8-1.65-2.71-.82-.8-1.21-.08-1.68.35-.64-.86-2.48-2.1-2.32-2.71.74-.86,1.14,1.6,2.22,1.58-.08-1.65-2-1.66-2.62-3-.36.25,0,.73-.4,1l-2.8-2.86c-.58-1.35,2.13,2.37,2.4,1.41-.34-1.15-2.5-2.06-3.61-3.33,1.11,2.25-2-1.49-3.15-2.53-.6-1.19,1.73,1.49,2.35,2.06.3-1.17-2.23-2.62-3.11-3.18-.35-1.27-2.38-3.89-3.88-4.29,0,.81,2.11,2.27,2.94,3.34-.32.41-1.18-1-1.73-1.43-1.14-1.14-2.36-2.6-3.16-2.53-1.27-2.27-2.85-3.3-4.94-5.73-.38-.3-.56.11-1-.3-.87-.79-.78-1.28-.23-1.61-2.65-1.61-3.06-3.82-5.3-5.4-.27-1,.48-.19,1-.34-.56-.47-.37-.71-.76-1.12s-.94.07-.53.49c-1.54-.22-2.52-2-3.95-3-.28.2-.55.41-.22.81-1.06-.43-1.53-1.86-3-2.7,1.05.34,1.07-.77.43-1.62.73-.28.5.84,1.25,1.27.44-.3.3-.78-.41-1.44-1.51-1.25-.75,1-1.85.51a16.72,16.72,0,0,0-3.08-3.82l.53-.49a7.2,7.2,0,0,0-2-1.45,6.11,6.11,0,0,1-1.9-1.5c.76-.12-.13-.93-.15-1.18,0-.46.75-.67-.06-1.44-1.26-.46.69,1.71-.33,2.06-1.16-1-.32-1.63-1.6-2.66-.43-.32-.21.39.07.75-.88,0-1.1-1.44-1.86-2.24s-1.68-1.1-2.38-1.74-1.3-1.85-1.93-2c0-.58.32-.26.38-.64-.88-1-1.18-.11-1.74-1.43-.07-.85.84.48.92-.08-.89-1.21-.92-.48-1.39-.77a1.86,1.86,0,0,1-.39.41.35.35,0,0,0,.39.3,3.94,3.94,0,0,1,.68,2.05,3,3,0,0,0-.68-.65c-.17.21-.33.37-.39.34s.41-.9.28-.95c-.65-.19-1.32-.11-2.91,1.15-.76,1,.94-.16.13,1.23-.8.6-1.52,1-2.36,1.63l-.19-.83c-.73.26-.65.75-1.2,1.17-1.1.84-1.45.24-1.69,2,.73-.39,2.19-1,.68.69.69.09,2.15-2,3.14-2.74.29.87-1.1,1.71-1.78,2.41-.84.87-1.84,1.76-2.43,2.38l-.57-1.13c-1.23,1.17-1.31,1.94-.51,2.19l-1.63,1.59c-.11-.34.25-.77.11-1.12a8.41,8.41,0,0,1-1.63,1.41,9.67,9.67,0,0,0-1.84,1.66c-.07-.21.15-.49,0-.67-2.65,2.21-3.77,3.76-6.2,5.75.32.87-.43,2-2.21,3.5.75.6,1.62-1.95,2.87-2.14-.16.94-2.36,2.45-3.33,3.61-.39-.19-.06-.58.31-1-1.29.92-.56-.7-1.45-.25-1.63,1.3.86,0-.15,1.15-1.24,1.61-1.44-.08-2.72,1.65-.59.62,1.11.17.51,1.19-1.17.31-2.39,3-2.24,1.52a19.83,19.83,0,0,1-4.28,4.54c.32,1.29,1.74-.87,2.72-1.66.37,1-1.29,1.45-2.07,2.36s-.67,1.52-1.57,2.22c-.87-.27-.1-1,.78-1.77-.41-.34-1.16.41-1.92,1.21-.25-.62-.15-1-1.14-.57-.35.5,1.09.38.18,1.5.08.78,2-.73,1.14.57-.8.8-.51.25-.64,0A28.84,28.84,0,0,1,164,70.22c-.87-.85,1.86-1.33,1.1-2.09-1.13.17-1,.78-2.23,1.52-.71.68.51.61.49.53.28.89-1.26,1-.3,1.63-1.28,1.06-1.59,2.42-2.86,2.81-.18,1.27-3.4,3.78-5.71,6.27-1.29,1.39-1.24,1.69-2.7,2.32-.31.38.11.56-.31,1-4.23,3.85-6,6.79-9.85,9.66-.31.38.11.56-.31,1-.7.82-1,.35-1.75,1.38-.95-.33.14-1.22.13-1.81a4.8,4.8,0,0,0,3.19-2.46c-.67-.34-1.22,1.08-2.24,1.52-.24.11-.63-.31-.8-.21a23.82,23.82,0,0,0-2.08,1.69c.14.95,1.16-.87,1.3.08-.26.72-1.86,3-.14,1.81.07.4-2.46,3.24-2.7,2.32-1,2.17-3.83,4.09-6.51,6.72-2.92,2.86-6.34,6.65-8.57,9.07-.75,1-1,.28-1.6.9a7,7,0,0,1-1.59,1.56c-.44.58.09,1.08-1.26,1.91-1.15,0,.22-.87.46-1.46.12-.29,0-.89.14-1.15.33-.5,2.26-1.25,1.43-1.74-.39-.2-.33.57-1,.94-.17.1-1-.65-1.76.72.26.54,1.35-1.52,1.44-.41-1.3,1.68-3.77,2.92-5.09,4.32.61.61,2.2-1.89,3-2,1.1.28-.17,1.23.35,1.67a52.76,52.76,0,0,1-8.59,7.75,21.19,21.19,0,0,1-5.71,6.28c.38.89,1.16.5,2.09-.38.28.52-1.23,1.54-1.1,2.09.65.63.92-.87,1.27-1.25,1-1.06,2.38-1.93,3.66-3.25.31-.38-.11-.56.31-1a7.26,7.26,0,0,1,2.55-1.83c.63-.81-.64.1-.17-.84,2.5-1.79,4.32-4.76,6.84-6.37-.3,1.45,2.19-1.29,2.89-.82.89-.77-1.22-.69.29-1.63-.24-.16-.71.42-1.11.76-1.15.84.34-.79.79-1.11a8.68,8.68,0,0,0,2.71-1.66c-.17-.84-1,.38-1.6.9-.51-.63.8-1.06,1.43-1.74a56.83,56.83,0,0,1,4.92-5.16c.49.23-.14.78-.63,1.29,1.36.26,1.75-1.81,1.9-2.54,2.6-2.46,3.58-1.9,5.74-4.28-.37-.92-1.71,1.25-2.55,1.83,1.61-3.23,5.64-5.45,7.46-7.65.21-.26.26-.94.31-1,.46-.49.27.4.32.35.63-.61,1-1.65,1.58-2.22,1.23-1.21,2.09-.92,3-2,.34-.39,0-.58-.18-.83,3.17-2.72,5.15-6,7.79-7.31.39-.38-.06-.35-.16-.17.78-1.36,3.78-4.19,4.93-4.5a13.37,13.37,0,0,0,1.41-2.39,121.07,121.07,0,0,1,9.72-7.86c1.2.38,2.35-.27,2.91.51,2.55-2.89,4-3.93,6.67-6.54a2.16,2.16,0,0,0,.15-1.15,4.77,4.77,0,0,1,1.75-1.38c.71-.8-.8-.13-1.13.09-1.65,1.21-1.08,2.46-2.69,3A8.58,8.58,0,0,1,177.89,63a1.18,1.18,0,0,0-1,.27c-.11-.5.44-.53.64-.62s1-.62,1.29.08c.44-.38.82-.87,1.27-1.25a3,3,0,0,1,.8-.42c.26-.1.48-.16.48-.16.57-.57.08-1.16,1.26-1.91.7.56,2.17-1.32,2.89-.82.77-1.16-1.09-.21-.5-1.19.91-1,1.74-1.29,1.44-.4.28-1.31,2.77-1.87,1.74-2.71-.83-.37-1,2-1.59,1.56-.9-.27,1.11-1.63,1.58-2.22.23-.31.49-1.14.62-1.29,1.52-1.8,4.1-4.36,5.41-4.64a3.57,3.57,0,0,1,.65-.8l.19-.2.15-.12.3-.23a6.15,6.15,0,0,0,1.21-1.07,7.49,7.49,0,0,0,.82-1.8,2.2,2.2,0,0,0-1.33,1.1,3.43,3.43,0,0,1-1.13,1.28c-.18-1,.83-1.78,1.47-2.43s1.76-1,2.66-2.25c.43.66-.36,1-.27,1.61.52-.82.72-1.75,1.32-2.63.62.41.94-.64,1.94-1.21,0-.87-1.1,1.39-.94-.1.65-.73,1.67-1.24,1.68-2.3.33,0,.72-.21,1-.19a4.55,4.55,0,0,1,.44,1.35c.31,0,.8.55.7-.65.6.22.8,1.88.89.58.8.82.66,1.87,1,2.73.61.31-.43-1.08.08-1.62a7.66,7.66,0,0,0,2,2.45,9.19,9.19,0,0,1,2,2c.29.08.52-.25.9.25-1.14.29.25.86-.09,1.62.5-.13,2.17,1.15,2,.38.38-.18.49,0,.53.3s0,.61.18.76c1,.73,0-.9,1-.34,2.9,3.2,5.79,5.73,8.28,8.1.52.5.35.73.76,1.12.84.79,1.88,1.09,2.84,2.21.29.35.9,1,.89,1.6,1.21,1,2.64,2.5,3.92,3.65,3.63,3.29,6.18,6.1,6.56,9.09-.81.55-1.28,1.21-.47,2.27-.38.21-.93-.18-1.59-.95.32,1-2.07.52-.47,2.27-1.2-1-1.89-.18-2.79-.44-.39-.12-1.14-1.4-1.28-.63-2.73-3.65-6.49-7.16-9.45-10.66-.47-.56-.65-1.29-1.21-1.91-.76-.86-1.83-1.42-2.66-2.38a15.44,15.44,0,0,0-1.08-1.44c-1.1-1.1-2.28-1.2-2.49-2.54-.38-.3-.56.11-1-.31-.78-.93-1.78-1.62-2.49-2.54a2.81,2.81,0,0,1-.41-.79l-.18-.49c-.33-.35-.87-.31-1.28-.62a3.08,3.08,0,0,1-.58-.56,1.31,1.31,0,0,1-.16-.31,1.31,1.31,0,0,0-.3-.55c-.25-.2-.51,0-.76-.1a2.48,2.48,0,0,1-1-1.45c-.17-.3-.3-.05-.43.24-.52-1.14-1.6-1.81-2.6-2.74-.23-.74.25-1.15-.21-1.91h0c-.39.79.17,1.13-.13,1.82a11.31,11.31,0,0,0-2.09,2,1,1,0,0,1,.23-.89c-.68-.63-.45,1.3-.39,1.38-.47.74,0-.84-.48-.55-.31.13-.11.58,0,1l-.81.76c-.43-.25-.14-.28-.46-.89l-.4.38c-.17.37,1,.47.28,1.06-.43.52-.17-.29-.67-.69-.34.36-.51-.06-.52.5-.27.3.6.83.81,1.22l-1.66,1.62a1,1,0,0,0-.34-1c-.17.64-1.67,1.65-.62,1.94-1.62,1.9-2.82,2.47-3.83,2.42-.66.53-.64,2.31-1.59,1.56-.72,1,1.41,0-.46,1.46a1.18,1.18,0,0,0,1-.27c-.13.21-2.36,3.39-2.55,1.83-1,.94-.17,1.38-1.41,2.39l-.5-.52c.09.49-.68,1.23-.77,1.77a3,3,0,0,1-2.25.86c.69.84-2,2.75-2.37,3.33a2.29,2.29,0,0,0,1.12-.76c-1.22,2.24-4.08,3.68-6,5.92a6.4,6.4,0,0,0-3.7.6c-1.1.83-.16,1.08-1.26,1.91,1.54-.27-.27,1.76,1.3.74,0,.75-2.33,2.14-.77,2.43-3.25,4.1-8.73,8.44-11.91,12-.41-.83,1.62-2.18,2.86-3.46a24.22,24.22,0,0,0,3-3.3c-.84.35-1.87,1.3-2.56,1.17-1.4,1.13-.09,1.51-1.25,2.57l-.33-.35a9.67,9.67,0,0,1-3.67,2.59c-.31.38.11.56-.31,1l-2.22,2.18c-1,.52-.53-.16-1.13.09-1.29,1.21.35.17-.14,1.16-.84.82-2.15,1.78-1.1,2.08-2.28,1.53-4.82,4.69-6.52,6,.69-1.45,3.43-3.48,4.92-5.16.12-.62.52-1.32.13-1.81-.87.77-1.31,1.41-.78,1.78-1.54.83-2,2.2-3.81,3.73.17-.6-.13-.39-.49-.52-2.54,2.87-5.09,5.53-8.57,9.07-1,.54.08-1.09-1-.38-1.36,1.34,1.32.46-.93,2.26-1.05.23-.41-1.36.29-2.3-.83-.43-2.35,1.78-1.1,2.08-.68.52-1,1.25-.47.8-6.09,6.22-15.51,14.74-21.12,21-.33.39,0,.35.16.18-.61.83-2,2-3.33,3.6-.72-.37.92-1.36-.34-1s-1.43,1.19-1.75,1.38c-1,.61,1.12-1.14,1.26-1.91-1.41,1-2.71,1.63-4.15,2.73.43,1.13-.39,2.62-1.07,4.07-.86.66-1.77,1.45-2.24.86-.91,2-3.29,3.24-6.19,6.4a.93.93,0,0,1-1-.38c-.75.58-.37.84-.14,1.14a70.21,70.21,0,0,0-5.09,5c-2.81,2.78-6,5.06-8.43,7.27-1.19,1.06-1.94,2.58-3,2.62-.36.48-.22.8-.63,1.29a4.56,4.56,0,0,1-2.08,1c-1.81,3.07-5.81,5.68-9.69,9.84-1.16.35.17-.79-.5-1.19-1.49,1.53-.18,2.27-2.36,4,0-.59.47-1.31-.34-1.67-1.27,1-.55,1.93-2.07,2.35-.13-.55,1.38-1.57,1.1-2.08-1.12.33-1.07,2.21-2.85,3.47-.53-.37-.1-1,.78-1.78-1.16,0-.83,1.4-1.74,2.05-.42-.29-1.44,1.32-1.92,1.21-.57,1.14-.93,3.09-2,3.68.11-.55-.29-.95-.18-1.5.55-.59.87-.45,1.43-1.07-.6-1-2.24,1.28-2.87,2.14-.56-.43.22-1.25-.35-1.68-.3.68-.31,1.27-.61,1.95-1,1.17-1.52.65-2.24.86,1.44-1.55,4.36-5.67,6.51-6.06.63-.8-.64.1-.17-.84,1.42-1.25,3.11-3.38,4.29-3.87.31-.31.05-.46,0-.66,1.82-1.88,3.63-2.52,4.29-4.54,1.36-.34,4.3-3.9,5.24-5.48.87,0,2.19-1.38,3.35-2.27-.58-.72-1.83.7-2.73,1-.25-1.1.7-.6,1.59-1.56.72-.65-.44-.76-.5-1.19a7.49,7.49,0,0,0-2.68,4.31C65,170,63,172.49,59.79,175.08c.59-1-.26-1.55.61-2.61-.5-.27-1.69,1.65-2.24,1.52.23.45.58.48,1.13-.1.44.61-1.3,1.85-2.21,2.84-.29-.25-.48-.81-1-.39-1.31,1,.66,1-1.09,2.09,0-1.12.16-1-1.14-.57-.43.65.18.6.64,0,.17.32-.89,1-.62,1.29-1,.45-1.94,1-1.94-.12-1.36,1.2-.74,1.84-2.53,3.15-1.21,1.28-1.67.21-2.88,1.48-.67,1.13-1.45,2.28-.29,2.3-1.78,1.72-2.34,2.88-1.72,3.37a2,2,0,0,1-.9.77,1.83,1.83,0,0,0-.8.56c-.49-.23.07-.7.57-1.23-.51-.48-1.33.06-2.06.35-.92,1.46-.62,1.16-2.16,2.11-1-.07.86-1.1-.15-1.19-.46-.35-.82.92-.25.91-1,1-1.21,1.75-2.62,2.91a1.63,1.63,0,0,0,1.45.24c.07-.52,1.08-1.38,1.86-2.15.84.85,2.21-1.05,3-.22-1.54,1.37-3.51,3.38-5.47,5.35s-3.95,3.91-5.72,5.34c.13.16.23.29.31.41-.81,0-1-.18-1.14-.41a9.12,9.12,0,0,0,1.1-.68c2.4-2.3,5.85-5.86,8.35-8.17-1.18.51-2.53,2-3.73,2-1.21.93.65.72-.69,1.67-.48.66-.92.27-1.41.72-1.15.58-.24.87-.3,1s-.65.32-.87.52c-.42.36-.19.52-.28.6-.88.84-2,1.56-2.79,2.4a10.59,10.59,0,0,0,1.58,1.26c.59.48.27.55-.09.61,1.05.84.41-.32,1.28-.08.73.68,0,.73.16,1.2.56.63,1.2,0,1.79.1,2.29,2.1,4.52,3.92,6.25,5.7.28.3,0,.64.09.79.25.32,1.33,1.06,1.79,1.48s1.15,1.49,1.83,1.53c.1.4.75,1,.58,1.28,2.07,1.09,5,5.31,7.83,7.3-.29.8-1.17-.49-1.63-.3a14.26,14.26,0,0,0-3.12-3.18c-.67-.54-.93.39-1.77-.78.38,1.55,2.2,1.56,3.15,2.54-.08.7,2.09,2.12,1.17,2.56.81.31.44-1,1.67-.35,1,.76.57,1.05,1.39,1.75.84-.17-.38-1-.9-1.6.88,0,2.6,1.72,3.65,2.69A30.81,30.81,0,0,1,59,230.16a2.91,2.91,0,0,1,.42.8c.1.27.16.48.16.48.38.38.75.14,1,.31.8.61.82,1.63,2,1.74.6.48.45.73.27,1,.87,1,1.36.6,2.23,1.58-.39.21-.94-.18-1.6-.95-.14.54.55,1.35.54,1.93.79.68,1.58,1.38,2,.62.08.34,1.4,2.31,1.73,1.42.14-.71-1.43-1-2.18-2.23.53,0,1.26.79,1.91,1.27.34-.7-1.33-2-1-2.73a4.41,4.41,0,0,1-2.14-2.87c.53-.23.67,2,1.73,1.42.14-.28-.44-.79-.62-.63-.6-1.42,2.59.39.11-1.94,1-.62,2.11,2.91,3.33,2.37-1-1.34-1.27-2.45-2.9-4-1.06-.79,0,.83-.88.82-.64-.93-.07-1.48-.19-2.25-.78-.7-1.63-1-1.87-1.91,2,.32,3.42,3.14,5.82,4.91-.4.12-1.13-.86-1.32,0,1,1.37,1.28-.2,2.4,1.41.25-.13.24-.36,0-.64,1.39.72,2.88,1.81,3.9,1.23,1.15.87.69,1.24,1.21,1.92,1.25,1.54,2.1,1.68,3.29,3-.33.41-.81.26-1.46-.46.08,1.75,3.38,3.3,2.37,4.48,1.53,1.12.95-1,.61-1.79.33-.41,1.18,1.06,1.73,1.43-1.47-.44-.28,1.2-.6,1.78,1.84,1.29,3.29,1.17,5.41,3.47,1,.74.24,1,.41,1.44.29.23.49.15.8.47.84.46-.45-1.35,1-.33.75.6.35.83.1,1.12a14.22,14.22,0,0,1,3.64,2.69c.75.89.31,1.41,1.84,2.55.15-.24-.43-.72-.77-1.12,1.45.45,4.3,4.54,6.59,6,.47.81-.64,1.11.37,2.09.54.4.1-.33.52-.49a51,51,0,0,0,5.17,4.92c-.47.51-.45,1.17.85,2.24,0-.37-.53-.9-.09-1.12.81.42.15.8.27,1,.55.78,1.92,1,2.18,2.22-1.66-.48-2.22-2-4.09-3.48-.79-.7-1.19,0-2.09-1.1,1.63.36-2.11-2.45-2.27-3.35-.49-.16-1-.32-1.46-.46-.65-.94-.08-1.49-.2-2.26-1.44-.48-.67-1.5-2.32-2.7-1.47.53,1.2,2.62-.64,2.43-.51-1.12-1-2.2-.16-2.9-1.19-1.51-1.9-1-1.32,0-.5.07-.83-.63-.45-.8a7.63,7.63,0,0,1-1.83-2.55c-.53-.69-1.25.28-.21.8-1,.09-1.06-1.71-2.05-1.74-.37.18,0,.59-.21.81.75.31,1.92,2.08,2.39,1.42,1.42,1.1.42,1.44,1.83,2.55-.21.54-.84-.37-1.15-.14-.28.47.74.4.8.47.4.41.13.87.59,1.28s1.2.48,1.91,1.26c.47.38.69-.15,1-.34,1.33,1.23,1,1.91,1.48,2.88.89,1.07,1.32.48,2,.62a9.88,9.88,0,0,1,.5,2.57c1.32-.05,3.2,1.89,4.93,3.31-.93.29,1,1.48,1.52,2.23,1.06.89,1.56-.25,2.88,1.57a4.15,4.15,0,0,1-1.28-.62c-.33.46,1.26,1.49,1.56,1.59-.09-.4,0-.73-.1-1.13-.34-1.37-1.3-1.68-.24-1.61l-2.8-2.86c1.15,0,2,1.92,3.6,3.33a56.75,56.75,0,0,1,5,5.08c-.76.28-.32.93-.74,1.31,1.4,1.88,2.44,2.32,3.56,4-.53.23-1.17,0-2-.61.35,1.42,2,.82,2.89,1.57,1.2,1,.14,1.36,1.34,2.39.61.59.67-.77-.41-1.44,1.51-.18.84,1.38,1.52,2.24,1.47,1.08,1-.17,2,0,1.15,1.33-1.13.33.06,1.78.6-.23,1.74,1.46,2.12.45.64,1.26,2.87,2.54,1.52,2.23.95.76,2.25,2.73,3,2.7.42.68-.28.34-.53.49.85,1.17,1-.09,1.64.3-.15,1.13,1.15.57,2.49,2.54-.55.15-1.22-.14-1.81-.13-5.68-6.2-8.82-7.82-14.1-13-.5-.39-.34.26,0,.64a34.92,34.92,0,0,1-3.47-2.84c-.24-.28-.2-.88-.58-1.29-.21-.22-.9-.61-.8-.47-.41-.58.91-.05-.9-1.6,1.62-.48,2.43,2,3.65,2.69a22.6,22.6,0,0,0-4.56-6.7.93.93,0,0,0,.84-.18c-1.43-1.12-1.56.07-1.72,1,1.18,1.57,1.62.49,2.71,1.74-1,.58-3,.11-1.13,2.27-2.57-2.52-6.85-5.39-9.21-9.05-1.47-.49-3.5-2.94-5.34-4.75-.67-.55-.92.38-1.77-.78a2.58,2.58,0,0,1,.29-2.1c-1.65-1.37-1.23-1.16-3.29-3-.5.21-.25.66-.39,1,.86.15,2,1.48,2.88,1.56.78,3-2.78.15-4-1.71,0,0,.7,0,.66,0s-1.86-1.87-1.91-1.26c-1.73-1.9-5.74-5.66-8.76-8.25-2.08-1.78-3.84-4.15-5.61-5.72-.86-.76-2.26-1.4-3.33-2.37-1.31-1.18-2.44-2.47-3.64-2.68-.42.74,1.4,2.2.81,2.89,1.72,1.09,3.9,3.54,3.53,4.62,1-.28,2.2.45,3.54,1.56.76-.2,0-.87.57-1.14,2.1,1.74,0,1.93-.78,1.95.18.41,1.59,1.58,2.32,2.71.62.59.17-1.11,1.19-.51.19-.43-2.08-.95-2.19-2.22.55.09,1.19.54,1.64.3,2,2.53,5,4.94,8.41,8.57.65,1.34-1.88-2-2.08-1.09-.41.45.7,1.39,1.52,2.23s.92-.39,1.77.78c-1.27-.27-.26,1.05.41,1.45.91.54.79-.75.8.47A3,3,0,0,0,92.78,265c0-.65-1.1-1.66-.37-2.09,1.06.92.35,1.28,1,2.08.29.23.49.15.8.47.69-.22-.3-1-.41-1.44.09-.67,1.08.76,1.11.78.84.61,1,.46,1.6.95,1.49,1.3,3.19,3.4,5,5.08-1.26-.34-1.35-1.08-2.67-2.37-.42.45.69,1.38,1.52,2.23-.5.5.06,1.33.36,2.09,1.32.75-.34-1.25.75-1.3,1.94,1.71.2,2.26.78,3.53a17.85,17.85,0,0,1,2.45,3.19c.6.57.78-.36,1.32,0,1.74,1.5.52,2.06,2.59,3.67-1,.57.44,1.89-.64,2.43-.59-1.53-2.39-2.06-3.33-2.37-.14.32.63.93,1.07,1.44a1,1,0,0,0-1,.34c-.71-.67-.85-1.15-.41-1.45-.36-.54-1.45-.14-1.11-.79-.14-.74.11-.66,1,.31-.27-.89.61-1.19,1.37-.67.07-.92-1.39-.8-2.05-1.74.31-.49.17-1.12.92-1.46-.94-1-1.19.51-2.13-.46-.55.34,1.07,1.36.24,1.61-.36-.55-1.82-1.45-1.39-1.75a3.91,3.91,0,0,1-2.39-1.41c1.11,0,1.47-.63-.37-2.1-.42-1.22,1.3.41.88-.81a2.65,2.65,0,0,1-1.91-1.27c.41-.16.08-.55-.28-1,.6-.17,1.68-.36,1.41-1.31-.71-.42-1.11.26-2.09-1.1.29-1.06,1.39.71,1.68-.35-1-1.46-1.29-.37-2-.61-.53-.68.78-.78-.72-1.76-.37,0-.75.52-1.81-.14-.15.66,1.25.33,2,1.74-1-.05.37,1,.41,1.45,0,.24-.47.3-.52.49s.62,1,.09,1.13a5.12,5.12,0,0,1-1.73-1.43c.34-.1.83.3,1.15.15a3.17,3.17,0,0,0-1.91-1.26c-.71.93.93,2.27,2.28,3.35-.21.81-1-.42-1.6-.94.13,1,.08,1.69-1.23,1.14-.11.26.51.75.28,1,.82.75,1.7.44,2,1.74-1,.5-3.25-2.46-5.2-4.27a21.94,21.94,0,0,1-3-2.7c.1-.16,1.24.7,1.42,1.11-.61-1.36-1.22-.94-2-1.75a2.52,2.52,0,0,1-.58-1.28c-.59-.52-1.42-.55-2.09-1.09s-.52-.89-1.07-1.44c-1-1-2.82-2-3.12-3.18,1.13-.58,2.71.35,4,2.36.49-.65-.93-1.9-2-3-1.06-.78-.62-.12-1,.33-.57-.69-1-1-1.29-.62-.59-.53-1.38-1.76-1.6-.94-.3.35,1.44.93,1.39,1.75-1.93-1.06-3.21-3.29-5.17-4.92-.43-.36-1.1-.49-1.59-.94-1.45-1.32-3.4-3.21-4.85-4.6a88.07,88.07,0,0,1-6.55-6.68s.38-.25.35-.33c-.14-.47-1.17-.56-1.42-1.1,1.81-.42-1-.37-2.18-2.23-.39-.34-.58,0-.84.18-1.23-1.34-3.17-2.91-3.07-3.83-.9-1.08-1.25-.21-2.22-1.57.36-.82,1-.61,1.94.61.57-.48-.42-1.45-1.34-2.4-.76.27-.32.92-.74,1.3q-3.48-3.22-6.89-6.52l-3.4-3.3-3.61-3.57c-5.44-5.4-10.8-10.85-16-16.19l21.19-20.66c2.48-2.44,4.42-4.5,7-6.86.53-.49.37-.73.79-1.11,1.13-1,3.32-2.94,5.25-4.81,1.06-1,1.8-2.27,3-3.29A112.86,112.86,0,0,0,67,158c1.37-1.55,2.73-3.93,5.4-5.29,1.42-1.83,2.5-3.19,4.13-4.05-.37,0-.9.53-1.13.1,2.61-2.07,4.05-4.16,7-6.86.11.34-.3.82-.14,1.15,1.48-1.09.25-1.4.93-2.26.79-.69.91.59.82.88.82-1,1-1.75,1.74-2.71,1.26-.71,1.65-1.6,2.86-2.81.56-.57,1.26-.86,1.75-1.38.76-.81,1.56-2.59,3.48-4.09a5.78,5.78,0,0,1,1.28-.58c.59-.51.27-1.42,1.59-1.56,1-1.17,3.06-4.19,4.43-5.69a7.15,7.15,0,0,1,1.44-1.07c.58-.55.48-.85,1.1-1.42s.95-.33,1.28-.59c.18-.13.41-.75.79-1.11a61.79,61.79,0,0,0,4.93-4.5c.51-.6.64-1.21,1.26-1.91a3.88,3.88,0,0,0,1.29-.58c.32-1,1.74-2.08,2.69-3,.69-.66,1.2-1.8,1.9-2.53.55-.58.85-.46,1.43-1.07l7-7.52c.5-.52.73-.35,1.12-.76,2.09-2.19,3.66-4.4,5.07-5.65.72-.63.69-.23,1.29-.58,1.61-1.79,2.82-3.46,4.75-5.34.37,0,.9-.53,1.13-.1.35-.39,0-.58-.18-.84,2.15-1.93,2.79-4.27,5.09-5,1-1.24,1.13-1.16,2.38-2.67.55-.14,1.2-.57,1.45.25,1.41-1.4,0-.79.3-1.63,1.31-1.59,1.94-1.07,3.19-2.46.56-.6-.36-.78,0-1.32,1.89-1.25,3.66-3.86,6-5.92.72-.62,1.77-1.1,2.56-1.83,2-1.87,4.84-6,6.83-6.37a2.16,2.16,0,0,0,.15-1.15c2.52-1.62,2.91-3.73,5.72-5.61-.21-1.25.91-1.56,2.05-3-.07-.29-1,0-1.13.1-.37.3-.26.88-.63,1.28s-.81.37-1.11.76-.54,1.17-1,1.6c-.67.72-1.3,1-2.07,1.7A27.18,27.18,0,0,1,166,56.11a6.64,6.64,0,0,1-1.28.59c-.37.32-1.19,1.58-2.06,2.35-1.1,1-1.18,1.23-2.54,2.5-1.15,1.07-2.75,2.57-4.45,4.36-.35-.2,0-.6-.17-.84-1,1-2,2.15-2.4,1.34-.35.4,0,.59.17.84.31.44,1.2-1,1.76-1.38-.35,1.56-2.73,3.54-4.61,4.85-1,.55-.34,1.67-1.1,1.42-1,.28-.18-.47.14-1.15.21-.43-.46-.28.31-1,.27-.25.49-.12.8-.45.14.26-.44.71-.79,1.11,1.46-.53,2-2.18,3.34-2.94-.43-1.43-2.51,2.4-2.89.82-1.51,2-1.27,3.34-3.79,5.06.29,1.16,1.71-1.27,2.09-.37a12.27,12.27,0,0,1-3.82,3.08c.3-.78,2.1-2.57.45-2.13-.55.68.38.93-.78,1.78-.67-1.27-2.71,1.42-2.71,2.32.58,0,1.36-.59,2.24-1.52.34,1-1.47,1.72-2.38,2.67.09-1.41-1.24-.12-2.26.19.28,1,1.71-.48,1.3.74-1,.74-1.47,0-2.56,1.17-.82,1,.76-.24,1-.27-2.74,3.41-7.35,7.8-11.43,11.88-.38.37-2.18,1.25-2.06,2.35a63,63,0,0,0-6.84,6.37c-.08-1.07,1.85-2.43,3.17-3.78a54.61,54.61,0,0,0,4.92-5.16c-.69-.51-1.28.43-1.31-.74-1,1.29-2,1.35-2.22,2.18.49-.31.83-.46,1.92-1.2.11,1.6-2,1.76-3.18,3.11.27.55,1.36-1.51,1.44-.41C116,103,105.68,113.06,98,120.81c-.52.53-1.24.86-1.75,1.38-.7.73-1,1.44-1.74,2-1.12,1-3.14,1.48-3.34,2.94-.5-.28-1.49,1-2.08,1-.36.44,0,.67.33.36-4.72,6.38-12,11.32-15.72,16.41-.53.38-.11-.18-.32-.35a24.93,24.93,0,0,1-3.49,4.09c-.39-.48,1-1.46.62-1.95-1,1-1.79,3-3,3.3-.71-.78,1.53-1.12,1.1-2.09.92-1.07,1.42-.78,2.39-2,.22-.29.15-.49.47-.8-.29-.49-.7-.59-1.29-.08a2.23,2.23,0,0,0,.12-2.48c-1.15-.16-1.85,1.86-2.87,2.15-.69-.38.87-1.15,1.11-1.42s-.14-.5,0-.67c.81-1,2.06-2.12,3.33-3.6a1,1,0,0,1,1,1.71c.13.62,1.85-.42,1.6-.89,1.26-.69-.13,1.2.18,1.5.73-.65.88-1.14.47-1.46.92-1.07,1.22-.17,2.23-1.52.12,1.23-2.25,1.8-2.05,3-1.08,1.07-3.12,1.59-3.66,3.25.28,1.16,2.54-2.46,1.93-.54.9-1.72,2.18-2.19,2.68-3.65.68-.52,1.43-1.28,1.77-.72.84-1.81,3.82-4.12,6.35-6.23a10.92,10.92,0,0,1,3.49-4.09,15,15,0,0,1,2.36-3.33c.34.27,0,.75.34,1,.83-.75.41-1.15.78-1.77,1-1.11,2.7-2.39,3-3.29a2.67,2.67,0,0,0-1.59.89c.31-.9,1.88-2.16,2-3,1.46-1.39,2.42-1.21,3.83-2.42.4-.54-.34-.1-.49-.53,1.31-1.36,2.14-1.21,3.5-2.76.22-.43,0-.73.63-1.29-.16-.41-.56-.08-1,.27a5,5,0,0,1,2.7-2.31c.63-.8-.64.1-.17-.84,1.16-.9,1.53.72,3-1.3-.37,0-.9.53-1.13.09,1.39-.74.78-1.57,1.75-2-.12.06.09.8.49.52s.48-1.23,0-.66c-.6-.35,1.86-1.56,1.26-1.91-.85-.09-2.74,3.11-3.2,1.79-.38.48.15.7.34,1ZM70.39,140.81c.58.5,1.2.83,2.26-.19l-1-1.05Zm2.45,2,1-.93c-.81-.22-1.48-.9-2.89.81C71.14,144,72.61,141.43,72.84,142.78Zm24.48-23.33c-1,.84-1.23-.75-2.56,1.17.15.91.89-.07,1.29.08C96.09,121.2,97.81,119.51,97.32,119.45Zm2.92,156.2c1,.49,2.16,1.9,2.75,1.09-.85-1.17-1.11-.23-1.78-.78.48-.36.91-.74.26-1.46Zm-14.3-15.26-.93-.95c-.31.73-1,.27-1.37.66C84.73,261.33,85.23,260.47,85.94,260.39Zm-1,2.11c-1.19-.19-1.17.45-2.79-.44C83.33,263.15,86.06,264.3,85,262.5Zm6.48,4.9c-.53.49-2.33-.4-.74,1.3.33-.95,1.22.14,1.81.14C91.92,268.27,92.06,268,91.47,267.4Zm.75-1.3c.32-.16.8.24,1.14.14-.36-.48-.34-.84-1.07-1.43C91.81,265.09,91.71,265.5,92.22,266.1Zm-3.49.21c-.34.13-.78-.14-1,.34a4.14,4.14,0,0,1,1.08,1.44C89.35,267.68,89.78,267.23,88.73,266.31Zm-3.64-8.17c.51,1.42,2.16,1.84,3.42,3.5-.17.31.22.8.1,1.13s-.7-.41-1-.31c.61.92-.08,1.44,1.17,2.56.68.6,1.18.52,1.77.78.76-.93.77-2.1-.6-3.7-.57.11.18.64.27,1,.14.51.18,1.67-.57,1.14-.61-.92-.94-1.76-.19-2.25A24.75,24.75,0,0,0,85.09,258.14Zm2.7-3.75c.86,1,1.63,1.58,2.23,1.58-1.44-.85-.89-1-1.7-2.07Zm-4.43-8.64c.11.41,2,2.93,2.35,2.06C85.82,247.25,83.67,245.22,83.36,245.75Zm-5-1.37c1.68,1.5,2,3.42,3.87,4.29,1.28-.55-.64-2.11-1.51-2.23C79.36,245.26,79.42,244.45,78.31,244.38ZM74,239.93c.47,1.59,3,1.9,3.43,3.49C77.77,242,75.17,240.65,74,239.93Zm.68-3.08c1.42,1.45,2.22,3.86,4.05,4.14C76.83,239.59,76.09,237.4,74.63,236.85Zm4.13,19.3c-.13.08-.26.14-.49-.16-.56.34-.15,1,.72,1.76C79.54,257.41,79.63,256.93,78.76,256.15Zm2.84-3.27c-.88.45,1.51,1.93,2.14,2.86-1.09,0-.6.71.55,1.93C85.72,256.89,82.68,253.74,81.6,252.88ZM80.37,254c1.16.88.71,1.25.72,1.77a2.77,2.77,0,0,0,1.6.94c-1.16-1.31-1-1.67.08-1.29C82,254.6,80,253.51,80.37,254Zm-2.94,2.15c-.68-1.1.52-1.59-1.3-3.05-.72,0,.22.92-.08,1.29-.07.09-.94-.56-1.15-.14-.11.21-.31.53.89,1.6C76.45,254.63,76.63,256,77.43,256.17Zm-6.11-8.3c.73-1.33,2.3,2.91,2.43.77A4.65,4.65,0,0,0,76,250.22a23.43,23.43,0,0,0,2.55,4.32l.7-.66c-1.45-1.35-2.13-2.3-.85-2.25-1.72-1.63-3.21-2.46-4.89-3.95C73.06,248.78,70,245.25,71.32,247.87Zm-5.89-1.2a25.37,25.37,0,0,0,3.82,2.53,26.1,26.1,0,0,0,4,4.77,1,1,0,0,0,.57-1.14c-.77-.36-1.85-1.81-2.53-1.89.49,1.09,1.29.92,1.38,1.75a4,4,0,0,1-2.14-2.87c1.91,1.41,1.18-.16,2.61.61.63.56.49.88,1.07,1.43.54-.41-.53-1.33-.06-1.77.21,0,1.77,1.3,1,.31-1.21-.89-1.94-.09-3.37-1.73,0,1.58-1.28.32-1.81-.13.58.62-.87.44-1.32,0,1-.71-1.78-2.61-1.44-3.53l-.88.82c.82.85,1.93,1.78,1.52,2.24C66.93,247.28,65.77,245.51,65.43,246.67Zm1.6-4.54c-1-.76-.56-1-1.38-1.75C64.32,240.56,66.67,242.65,67,242.13Zm-3.62-.26c1.25,1.44.87,0,1.46.46.83.84,1.74,2,2.22,1.58-1-1.36-2.27-1.76-2.49-2.54C64.36,242.09,63.7,241.34,63.41,241.87Zm-2.75-1.09c.6.51,1.06,2.05,1.87,1.91-.2-.29-.22-.51,0-.65C61.82,241.23,61.09,240.47,60.66,240.78Zm-1.83-2.55c-1.23-.83.33-.77-.89-1.6-.57-.43-.82.24-1.6-.94-1,.13.87,1.15-.08,1.29-1-.9-.84-2.22-1.87-1.91,1,.89.56,1.35,1.52,2.24,1.44.91,2.69,1.14,4.3,2.67.26-.14.45-.52.84-.17,1.76,1.34-.67-1-1.11-.79-.44-.4-.23-1.63-1.07-1.44C59.16,238,59.33,238.61,58.83,238.23Zm-2.51-5A6.5,6.5,0,0,0,58,235.34c1-.14-.87-1.16.08-1.29,1.08.85,1,1.32,1.7,2.07.86.2.19-.24.7-.66-1.11-.78-2.5-2.54-3.33-2.37C58.59,234.6,56.61,233.17,56.32,233.27ZM54,233c.1-.64,1-2.15-.51-2.57.51.6.41,1-.07,1.29-.6-.53-1.39-1.76-1.6-.94a14.87,14.87,0,0,1,2.32,2.7c.38.44,2.23,2.33,1.42,1.11Zm3.22-1.18c-.27-.54-2.54-3.49-2-2.39C55,229.79,56.45,231.82,57.24,231.8Zm-1.8-3.2c.79,1.23.81-.28,1.6,1,.48.51-.2.66.59,1.28l.7-.66c-1.31-1.07-1.28-1.72-2.32-2.71C55.3,227.82,56.62,229,55.44,228.6Zm-4.24-.9c-.94.16,2,3.34,1.52,2.24C51.26,228.89,52.66,228.75,51.2,227.7Zm.33-2.74c.73,1,.71,1.83,2,3C54.28,227.56,52.61,225.24,51.53,225Zm-4-3c.67.89,1.78,3.18,2.8,2.86C49.72,223.92,48.22,221.51,47.58,222Zm-3,.37c.85.73.64,2.22,1.51,2.23C46,223.88,45.65,222,44.58,222.32ZM43,223.8c.41,1.08,2.39,2.65,3.56,4,1-.34-1.67-1.84-.86-2.24.45.42.78-.09,0-.65-.42.07-.54,1.22-1.19.5A1.67,1.67,0,0,0,43,223.8ZM30.5,210.73c-.85-.85-.57-1.17-1.85-2.22C27.21,208.14,30.09,210.84,30.5,210.73Zm15.24,8.67c-.28-.21-.62-.62-.8-.47,1.07,1.42,1.48.51,2.13.45l-1.25-1.27C45.12,218.32,46.09,219.07,45.74,219.4Zm-4.26,2.16c-.5.36-.07,1,.23,1.61.34-.12.78.14,1-.34Zm-.84-7.36a5.62,5.62,0,0,0,1.67,1.56l.75.44a5.07,5.07,0,0,1,.85.65c-.46.43-1.32-.48-1.92-.59.46,1.35,2,1.36,2.86,1.54a23.83,23.83,0,0,0-2-2.18,3.21,3.21,0,0,1-1-1.84C41.59,214.41,41,213.75,40.64,214.2Zm-2,3.07c-1.82-1.67-1.63-1.24-.87-.43s2.08,2,2.41,1.66C39.52,217.86,39.25,217.86,38.61,217.27Zm-4.17-4.59-1.21.49c-.36.11-2.71-2.55-1.92-1.27a25.82,25.82,0,0,1,3.38,3.79c1.65,0-1.51-2.06,0-2.11.6.68,1,.64,1.59,1.27-.68.21-.34,1.32.45,2.41s2,2.08,2.76,1.88c-1.39-1.47-2.57-2.85-2.95-3.34.4-1.29,1.69.8,2.24.22C37.23,214.5,36.1,214.65,34.44,212.68ZM33.58,207c1,.75,0,.68.56,1.27,1,.56.33-.51,1.12.11-.36.22.42.35.83.85-.67.42-1.37-.33-1.32.37.48.44,1,1.15,1.44,1.13-.17-.17-.13-.41.25-.09,1.82,1.36.51,1.57,1.13,2.53.81-.55,1.76-.11,2.52-.87A7.22,7.22,0,0,1,38,209.71a.86.86,0,0,1-1.05-.38c-.88-.86.08-1-1.33-2C34.92,207.28,34.28,206.59,33.58,207Zm-1.47.58c.45,1.3-.44.79,1.24,1.61-1.36-.1,0,1-1,1.07.46.77,2.09,1,1.44.43-.26.08-.9-.48-.64-.65l.53-.15c.79.61,1.75,2.21,2.43,2.13-.1-.78-1.32-1.51-2.16-2.2.19-1.1-1.28-2-2.17-3.24C30.79,206.43,32,207.12,32.11,207.55Zm-6-3.35c.41.61,1.21,1.41,1,1.74l-2.37-2.42a3.89,3.89,0,0,0-2.07-.37c1.71,2.19,3.25,2.21,4.85,3.9.83.15,0-.69.24-.79a5.28,5.28,0,0,0,1.28.61c-.14,0-.37-.68-.35-.7.17-.16,1.37.6.31-.38C28.1,206.58,27.1,204.33,26.11,204.2Zm3.43-2.82a8.34,8.34,0,0,0-2.12,1.74c.46.46,1,.94,1.33,1.35.89-.15.6-.72-.12-1.35A4.06,4.06,0,0,0,29.54,201.38Zm-.37-1.18.75-.53c.52-.35.82-.14,1.55-.85.24-.23,1.33-1.15.74-1.39-.74.53-1.57,1.94-2.25,1.87,1.81-1.49.23-1,.5-1.49a8.78,8.78,0,0,0,2.3-1.92c-1.33-.16-3.26,2.5-4.89,3.46-.3,0-.06-.34-.23-.45a6.48,6.48,0,0,0-1.8,1.78c.65.63,1.66-1.57,2.27-.9l-1.73,1.7c1,.45,1.66-1.5,2.62-1.57.39,0,.31.15.17.29C28.73,200.54,29,200.4,29.17,200.2Zm6-4.72c-1.93,1.56-.32.88-.75,1.4-1,1.28-3.34,2.5-4,3.58.51-.44,1-.18,1.5-.14.54-1.49,2.25-2.43,4.21-4.46Zm8.8-8a.85.85,0,0,0-.81-.21,2,2,0,0,0-.78,1.77A2.77,2.77,0,0,0,44,187.52Zm2-5c-.47.65-2.07,1.62-1.74,2C44.93,184.4,46.48,183,46,182.52Zm5.84-8.08c-.9.32-.39.41-1.27,1.24C51,176.6,52.76,174.86,51.88,174.44Zm2,1.44c-.85.57-3,1.56-3.34,2.94C51.37,178.16,53.64,176.7,53.84,175.88ZM62,172.23c-.57.42-.79-.28-1.6.9l.49.53C61.35,173.16,62.13,172.57,62,172.23ZM63.89,169c-1.35.76-2.55,2.19-1.56,2.88.24-.14,1.62-.76,1.27-1.24-.21.18-.4.34-.49.13C64.28,170,63.86,169.57,63.89,169ZM69,165.38c-.65-1-1.31,1.22-1.91,1.87-.74.8-2.65,1.67-2.38,2.67C66.09,168.42,68.38,166.66,69,165.38Zm.73-4.42c-.63.16-2.18,1.55-1.74,2C68.46,162.35,70.06,161.38,69.73,161ZM56,182.13c-1.05,1-1.68.69-2.87,2.14C54,185.18,55.37,183.36,56,182.13Zm3.66-3.25c-.86,1.26-2.32,1-2.39,2,1.46-1.07,1.13-.33.66.7C58.85,180.59,59.8,179.58,59.69,178.88ZM65,176.71c-.7-.1-1.14-1-2.26.2C63.2,177.7,64.14,177.05,65,176.71Zm.13-1.81c-1.93,1.47.2-2.2-1.93-.11C63.22,175.82,64.65,176,65.11,174.9ZM73,165.79c.4-.34.6-.06.81.21a4.25,4.25,0,0,0,1.1-1.42C74.77,163.93,72.9,165.17,73,165.79Zm4.67-.21c-.3-.21-.49-.76-1-.39.43.26-.95.86-1.12.75-.23-.3.68-.93.14-1.14-1.46,1.33-3,3.59-4.6,4.85-.87.68-1.75.46-2.56,1.16,1-1,2.28-3.29,1.4-3.06-.11,1.21-2.3,3.3-2.19,4.17,0-.09,1.12-.88,1-.27-.66.45-.84,1.81-1.59,1.56.35-.39.93-.85.79-1.11-.66.26-1.5,1.06-2.08,1,.12-.6,0-.76-.81-.21.75.3-.89,1.28.19,1.5.77-.81.68-1.31,1.43-1.07.2.83.34,1.67.53,2.51l1.27-1.25c0-.85-1.77.69-1-.39.3-.3,1.39-1.39,1.44-1.07,0-.06-.78,1-.48.8a16.43,16.43,0,0,0,2.87-2.8c.64-.66,2.23-1.3,1.74-2.05-1.5,1.5-2.46,1.3-3.84,2.42.41-1.46,2.2-1.43,3-2,.57-.7,1.95-2.75,2.86-2.81.52.45-2.28,1.83-1.1,2.09C75.27,167.06,76.09,167,77.71,165.58Zm2.27-10a2.28,2.28,0,0,0-3,1.3,1.23,1.23,0,0,1,1-.27A8.61,8.61,0,0,1,75.83,159c-.15-.91-.89.06-1.29-.08-1.23.94-1,1.46-2.06,2.36.73.32.54.12.82.87Zm8.24-9.43a17.82,17.82,0,0,0-2.7,3c-.47-.31.74-1.09.46-1.46-.28.21-.63.61-.8.45l-.63.62c.19.32.72.54.34,1-1.16-.33-1.66,1.59-2.55,2.49l-.49-.53c-.78,1.84-3.92,2.68-3.33,3.61,1.2-1.46,2.73-1.9,2.41-.68,1.22-1.24,2.21-2.4,2.37-3.33C84.82,149.57,88.77,148,88.22,146.19Zm11.43-1.45c-.69,1.17-1.37.95-1.26,1.9,1-.5.56-.6,1.75-1.38Zm-1.21-5.2a6.39,6.39,0,0,0-2.07,1.69C96.44,142.23,98.68,139.81,98.44,139.54Zm-1.16-1.9c-2,2.15-.27-.87-1.46-.25a31.15,31.15,0,0,0-3.33,3.6c-.56,1,1.07,0,.34,1a9.8,9.8,0,0,0-3.36,1.61,2,2,0,0,0,0,2c1.16-1.11,2.59-2.44.94-1.6,1.19-1,2.13-1.19,3.35-2.28C93.77,140.21,96.8,139.1,97.28,137.64Zm-.5-1.18c.41-.34.37,0,.32.34.85-.83,1.21-.12,2.08-1C99.58,134.91,97,135.26,96.78,136.46ZM226.94,66.79c.4.35.86.93,1.11.79-1-1.26,1.73,0,.08-1.29C227.62,66.08,227.71,66.49,226.94,66.79Zm-11.2-20c1.34,1.44,1.88,2.45,3.3,3A13.84,13.84,0,0,0,215.74,46.8Zm-11.25-2.72c.4.17.43.8.71,1.09C205.35,44.32,204.55,43.09,204.49,44.08Zm-1.86,1.13c.27-1.05.74-.1,1-1.27C203.49,43.75,202.39,44.16,202.63,45.21ZM178.79,68.47c.1-.55-.3-1-.19-1.5l-1.27,1.24C177.69,68.69,178.07,69.12,178.79,68.47ZM160.73,79.12c1.13-1.27,1.4.18,2.71-1.66-.36-.7-1.53.61-1.14-.56C161.36,77.76,160.73,78.52,160.73,79.12Zm-1,9.37c.81-1.18,1-.48,1.6-.9-.4-.59-1.16,0-1.77.06-.32-.35.65-1.07,0-1.32C157.57,88.11,159.23,87.49,159.74,88.49Zm-18.6,17.23c.94-.85,1.57-1.62,1.57-2.21C141.64,104.79,140.4,104.85,141.14,105.72Zm-11.54,4.6,1.59-1.56C130.83,107.75,128.63,109.92,129.6,110.32Zm-.09,5.12c.85-.83,2-1.73,1.58-2.22C130.54,114,128.62,115.1,129.51,115.44Zm-5.57,4.46c1.19-.94,2.27-3,1.25-2.57C125.26,117.67,122.41,119.4,123.94,119.9Zm-9.77,4.54c.71.29,1.68-.23,2.88-1.48C116.71,121.49,115.32,123.35,114.17,124.44Zm-2.76,9.43c1.45-.48,2.07-2.07,3.67-2.59-.23-.66-.72.3-1.28.58C112.84,132.34,111.08,132.84,111.41,133.87Zm-9.84-.1a7.24,7.24,0,0,0,1.88-3.86c-.82.92-2.7,1.69-2.86,2.81C101.37,132.1,101.71,133.4,101.57,133.77Zm7.29-8.5c-.45-.88-1.94,1.51-2.87,2.15-.38.47-.37.84-1.11,1.42-.23-.64-.71-.51-1.44.41.27.77,1.19-.52,1.45.25-1.37,1.06-1.1,1.64-1.41,2.4C105.23,129.81,106.9,126.7,108.86,125.27Zm17-16.34c-.29.21-.51.22-.65,0a5,5,0,0,1-1.59,1.56C123.83,111.27,126.16,108.85,125.87,108.93Zm5.7-6.26c-.77.66-1.15,1.21-.94,1.59.48-.37.84-.35,1.44-1.07Zm2.39-2c-.84-.12-1.56-.61-2.89.82.27,1,.71,0,1.29.07-.06,0-.23.72.33.35Zm20.31-21.93c-1,.86-1.58,1.62-1.58,2.22.89-1,1.35-.56,2.24-1.52ZM267.38,98.42c-.23.45-1.17-.25-2.26-.93.62.63-.08.85.89,1.6C266.42,99.05,268.72,99.66,267.38,98.42Zm7.2,6.66c-.2-.28-.21-.5,0-.64-.92-1.19-1.38-.71-2.08-1.1C273.19,103.8,274.16,105.4,274.58,105.08Zm49.49,149.68c.68-.9,2-.51,2.08-1.69C325.69,253.27,324,253.82,324.07,254.76Zm-5.91,3.45c.55-.59.91-.56,1.13-.1,1.08-.9.83-1.42,2.06-2.36-.21-.39-2.27.75-2.56,1.17-.12.17.45.39,0,.66C318.54,257.32,317.39,257.86,318.16,258.21Zm-4.42,6.35c.28.58,2.32-.93,2.24-1.52A16.16,16.16,0,0,0,313.74,264.56Zm-92.26,93.5c-1.35,1.07-.44,2,.66.71Zm8.25-8.76c-.47-.57-1.44.42-2.39,1.34C227.74,351.45,228.77,350.26,229.73,349.3ZM246,358.89c-.7.12-.93-1.23-1.93-.12a1.06,1.06,0,0,0,.5,1.19C245.14,359.33,245.46,359.47,246,358.89Zm8.59-7.75c-.23-.44-.75.07-1.13.09-.19-.62-.2-1.53-1.45-.25a.88.88,0,0,0,.81.22c-.73.64-.88,1.13-.46,1.46A4.45,4.45,0,0,1,254.6,351.14Zm-14.3-17.25c-.73,1-3.32,2.57-2.53,3.16.76.25.1-.87,1.11-1.42.23.18.48.32,1-.28C238.76,335.22,240.82,334.19,240.3,333.89Zm15.85,13c-.74.81-1.66,2.34-.77,2.43,1.14-1.24.8-2.89,2.69-3.64C257.88,344.93,256.68,346.34,256.15,346.93Zm3-4.62c-.12.85-1.21,2-.6,2.61C260.18,343.69,260.8,341.25,259.14,342.31Zm5.95-32.72c.8-.68,1.16,0,2.08-1C266.91,307.9,265,308.94,265.09,309.59ZM293.35,291l.65.7.95-.93C294.62,290.17,294.13,290.07,293.35,291Zm39.21-40.14c-1,.88-2.92,3.17-2.21,2.84C330.82,252.91,333.4,250.44,332.56,250.81Zm5.28-2.83c-.87.67-1.31,0-2.4,1.35C335.85,249.7,337.74,248.92,337.84,248Zm.56-5.26c.58.83,2-1.69,2.23-2.18C339.83,241.17,338.68,241.79,338.4,242.72ZM351.8,233c-.74,1-.95.24-1.44.41-1.32,1.18-2.36,2.29-2.54,3.15-.31-.16-.88.49-1.28.58-1.15,2.27-3.89,4.44-5.87,6.1.6,0-1.72,1.89-.31,1,.64-.55.52-.89,1.11-1.43.51.32,1.82-.6,2.56-1.16s.64-1,1.43-1.74,2.13-1.43,2.87-2.14c.41-.4.22-.65.79-1.11C350,235.84,352.49,233.7,351.8,233Zm20.73-39.32c.67.83.8,1.77,1.44,2.51s1.44.88,2.13,1.48c.36.32,0,.29,0,.37a.86.86,0,0,0,.61.28c1.72,1.63,2.81,2.52,4.16,2.86-.92-1.27-3.63-3.14-5.52-4.93C374.42,195.28,373.93,193.58,372.53,193.63ZM321.79,156c.68.8.95,1.64,1.87,1.91C324.59,157.57,322,155.4,321.79,156Zm6.84,4.57c-.83-1.53-2-.51-1.5.19C327.44,160,328.42,161.62,328.63,160.53Zm-.68-2.4c.68.8,0,1.16,1,2.08C331.07,161.44,329.37,157.89,328,158.13Zm43,35.26c.78-.22,0-1,.75-1.29.31.24.66.66.9.57C370.68,190.84,369.1,191.45,370.94,193.39Zm-9.48-25.78c.28.93,1.87,2,2.66,2.38C362.82,168.79,362.63,167.66,361.46,167.61Zm-8.77-8.25c1.55.84.92,1.37,1.83,2.55.47-.37,1.13.09.88-.82C354.59,160.83,353.23,158.66,352.69,159.36ZM334.4,141.74c.16.62,1.26,1.81,1.74,1.42C336,142.53,334.88,141.35,334.4,141.74ZM326.67,152c.76,1.43,1.47,1.34,2.66,2.38-1,.35,1,1.36,1.08,1.43.61.71.3,1.29,1,2.08.54-1,2,1.42,2.74,1.09.52.6,1.74,1.42.9,1.6-1.07-.92-.86-1.69-1.73-1.43a4.75,4.75,0,0,0,1.38,1.75c.65.51,3.84,1.48,3.15,2.54-.17-.18-.49-.23-.17.16.9-.08,1.06,2.58,2.36,2.06.05-.42-1.18-1.25-.9-1.6,1.55,1.47,2.16,3.09,3.6,3.33.24.25,0,1,.1,1.13.2.34,2.07,2,2.18,2.22,0,.07-.39.28-.35.33.57.66,1.61,1,2.05,1.74-.16.25-.55.42-.22.82,1,.34.53-.57.57-1.14,1.46,1.15,1-.32,2.74,1.08.62.64-.08.86.9,1.6.51-.05,1.15.57,1.6.95a45.28,45.28,0,0,1,6.23,6.35,2,2,0,0,1,1.77.78c3.52,3.24,5.18,4.75,8.75,8.23,1.76-.65-2-2.7-3.06-3.8-1.9-2-3.37-4-4.95-5.73-.28.3-.69.17-1.15-.15-2.37-3-4.24-4-6.89-6.34.18-.56,1.44.38.21-.81-.68-.07-1.57-.86-2.26-.93-2.15-2.46-4.77-4.3-5.43-5.89a9.11,9.11,0,0,1-3.43-3.49c-.47,1.19-2-1.24-2.88-1.57.45-.24,1.18.54,1.64.3-1.39-.79-1.48-1.55-2.81-2.86-1.19.13,1.28,1.43.72,1.76-.83.39-1.45-1.57-3-2.7-.25.17-.51.3-1-.3,1.17.09,0-.24-.76-1.12-1.24-1.42-2.2-2.48-3.16-2.53a1,1,0,0,1,1-.34c-1-1.36-1.37-.68-2.08-1.1-1.88-2.16-3.78-4-3.84-4.94.26-.15,1,.2.53-.49-.67-.28-1.15.13-1.81-.13-.85-.86-.73-2.18-1.87-1.91,1.1,1.6,2.55,2.3,2.45,3.19a27.7,27.7,0,0,1-2.53-1.9c-1.53-1.16-.38-.54-1.38-1.75C318.71,145.49,326.32,152.58,326.67,152ZM311.14,137.9c.83-.34-.46-1.7-1.2-1.91C309.11,136.33,310.4,137.69,311.14,137.9Zm-13-6.09c.88.94,2.14,2,2.32,2.71.09-.5-.06-2.19-.86-2.24.18.2.35.4.14.48A2.8,2.8,0,0,0,298.11,131.81Zm-.43-3.86a2.86,2.86,0,0,0,2.05,1.74A2.84,2.84,0,0,0,297.68,128Zm-.05-1.77c-.75.61.33,1.25,1.2,1.91C299.74,127.87,298.14,126.85,297.63,126.18Zm9.06-10.3c.44,1.35,1.82,1.22,2.7,1.73C308.32,116.44,307.41,115.82,306.69,115.88Zm.42-1.62c.7-.37-.1-1.21-1-2.08C305.39,112.54,306.19,113.38,307.11,114.26Zm-5.41-3.47c.75.81,1.48,1.58,1.91,1.26C303.42,111.32,302.09,110,301.7,110.79Zm-12,4.54c.92,1.44,1.08.16,1.91,1.26.46.77,2.32,4,3.43,3.5-1-1.28-2.66-2.16-2.63-3,0,.16,1.12.88.48.16C291.94,117.07,290.25,114.21,289.68,115.33Zm8-8.67c1,.76.56,1.06,1.38,1.75a.91.91,0,0,0,.39-1A2,2,0,0,0,297.65,106.66ZM279.49,106c2,1.21,2.06,3,3.3,3-.79-1.13-.13-1.8-1.31-3-.62-.12-.8,0-.7.66C280.25,106,279.85,105.91,279.49,106Zm-1.88-4.32c.76.88,1.26.81,1.63.3C278.39,101.1,277.34,100.79,277.61,101.65ZM260.64,84c.21.28.22.51,0,.64.7,1.07,2.43,1.91,2.18,2.23-.44.25-1.42-1.37-1.77-.78.78,1.46,1.21,1.1,2.36,2.06.07-1,.78-.53.74-1.3A29.8,29.8,0,0,1,260.64,84Zm-20.1-17.75c.63.56.49.88,1.07,1.43.24-.72.89,0,1.19-.5A3.09,3.09,0,0,0,240.54,66.26Zm-4.36-4.45c.56.84.61,1.79,1.52,2.23a.88.88,0,0,0,.21-.81c1.61.59,1.51,2.32,2.49,2.55.19-.82-1.72-2.3-2.28-3.36-.31.19-.53.72-1,.34.28-.35-1-1.18-.89-1.6C233.72,59.59,235.34,60.56,236.18,61.81ZM191.94,19.5c2.17-2.2,2.95-2.33,4.12-4.4-.64.56-.38,0-.09-.59C194.27,16.74,192.19,17.14,191.94,19.5ZM191.07,21c.09.25,1-.56,1-1-1.13.8-1.39,0-2.95,1.57C189,22.82,190.7,20.75,191.07,21Zm-7.48,6.71c.91-.43,3.25-2.88,2.91-3.55C185.27,26,183.81,26.33,183.59,27.75Zm-1.68,13.44c.69-.93,1.64-1.94,1.73-2.7C182.08,39.6,182,40.06,181.91,41.19Zm-7.16-4.4c1.28-1.08,1.65-1.2,1.57-2.22C175.29,34.86,174.53,36.2,174.75,36.79ZM157.9,63.07a6.83,6.83,0,0,0,1.74-2,1,1,0,0,0-1.29-.08C159.47,61.29,158,62.38,157.9,63.07Zm-2.24,1.51c.29-.09,1.63-.22,1.44-1.07-1.56,0,.71-.89.94-1.59C157,61,155.63,63.86,155.66,64.58Zm-16,10.29c.65-.18,2.53-1.84,2.06-2.36C141.28,73.73,139.89,73.83,139.69,74.87Zm-11.91,12c-.07-.35.08-.76.63-1.28-.37-.7-1.07-.33-1.78.06.34.27.07.72-.62,1.28C126.37,87.64,127.07,87.27,127.78,86.88Zm-3.68,1.93a4.32,4.32,0,0,0,1.94.12C125.5,88.54,125.27,87.19,124.1,88.81Zm3.28,3.51c1-1.45,3.53-3.37,3.16-4.44-.78.28-.27.47-.79,1.11C128.88,90.05,126.56,91.66,127.38,92.32Zm-12.11,9.19c-.42.78-1.23,1.68-.94,2.26.77-1,1.06-.56,1.76-1.38Zm.6-2.61a5.05,5.05,0,0,0,1.43-1.73c-.12-.65-1.45-.83-1.29-.08C116.92,96.56,116,98.39,115.87,98.9Zm-5.57,4.46c.66-.93,3-2.34,2.21-2.84C111.85,101.44,109.46,102.86,110.3,103.36Zm.16.18c.83.62,2.82-2.45,4.14-3.39-.27-.37.94-1.16.46-1.46C113,100.85,112.93,101.68,110.46,103.54ZM345.23,170.6c.67-.25,1.54.23,2.57,1.25-.35.07-.76-.07-1.29-.62-.2.08,0,.28.14.48C346.31,171.83,345.72,171.05,345.23,170.6ZM91.51,261.27c-.75.36-1.42-1-2-1.74C90.27,259.39,91,260.6,91.51,261.27ZM230.18,57.06a13,13,0,0,1-4.54-4.28c.69-.75.48.49.94.95C227.83,54.21,229.29,56.1,230.18,57.06ZM190,44a45.88,45.88,0,0,1-4,4.23A18.07,18.07,0,0,1,190,44ZM54.27,242.49c-1.4.43-3.22-2.43-4.4-3.8-.8-.93-2.64-2-2.14-2.87A44.22,44.22,0,0,0,54.27,242.49Zm42.87,32.4c-.54-.59-.87-.47-1.42-1.1a4,4,0,0,1,.78-2C97.25,273,97.72,274.13,97.14,274.89ZM60,249.34c-1.14-.38-2.86-2.79-4.23-4C57.12,245.87,58.78,248.17,60,249.34ZM31.79,219.25l6.45,6.56a14.87,14.87,0,0,1-2.49-1.9l-.69-.67-.77-.8-1.55-1.67c-2.08-2.29-4.21-4.76-7.3-7.62C25,212.15,30,217.39,31.79,219.25Zm66.34,58.37L95,274.44C95.73,274.94,98.74,276.73,98.13,277.62Zm9.26,8.4c-.87,0-1.39-.8-2-1.74C106.21,284.32,106.73,285.09,107.39,286Zm-5.34-4.75c-1.57-.89-2-1.92-2.94-3.34a7.54,7.54,0,0,1,2.84,2.21C101.64,280.41,101.73,280.8,102.05,281.27ZM76.3,247.47c-1.09-1.5-1.58-.89-2.53-1.89.31-1.76-2.12-2-2.63-3a.9.9,0,0,0,.84-.17c.54.76,2.26,1.88,2,2.39C74.83,245.32,77.28,246.65,76.3,247.47Zm277.36-30.13a37,37,0,0,1,3.06-3.24c.55-.53,1.13-1.07,1.73-1.61l.92-.83.47-.43.2-.17.15-.12-.15.24-.28.36-.62.76c-.42.51-.88,1-1.36,1.55-1,1.05-2,2.13-3.16,3.22C354.14,217.67,353.89,217.52,353.66,217.34ZM280,81.78,282.15,84C281.79,84.21,279.13,82.3,280,81.78Zm33.37,209.06c.23.33-.82,1.82-1.41,2.39s-1.9,1.6-2.08,1C311.46,293.15,311.57,292.47,313.34,290.84ZM295.41,97.18c.37,1,2,2.34,3.25,3.66s3.25,2.73,2.77,3.5C299.64,102,294.88,98.77,295.41,97.18Zm77.73,79.6c-.22-.82.41-.27,1.2.51.39.39.83.83,1.21,1.19a8,8,0,0,0,1.44,1.19c-.13.27.8,1.09,1.38,1.73a3.42,3.42,0,0,1-1.54-.92c-.3-.26-.62-.57-.94-.89s-.74-.75-.87-.91C374.24,177.8,373.51,176.87,373.14,176.78ZM313,118.52c.77.83,1.57,1.67,1,2.08C313.08,119.72,312.29,118.89,313,118.52ZM291.65,96.43c.35-.6,1.56,1.86,1.91,1.26-.18.68,2.64,2.3,1.66,2.72A48.92,48.92,0,0,0,291.65,96.43Zm-10-10.17c1.52,1.36,1.3,2.17,2.28,3.36C283.88,89.58,280.53,86.64,281.68,86.26ZM291.88,98c1,1,2.28,2.18,1.66,2.72C293.31,100,291.15,98.54,291.88,98Zm3.53,4.62c.83-.32-1-1.5-.06-1.77,1,1.06.5,1.62,1.66,2.72C296.62,103.82,296.07,103.43,295.41,102.66Zm43.17,130.48c0-1.17,2.1-2.7,3.17-3.78,2.92-3,5.3-5.24,7.94-7.79,1.32-1.27,2.41-3.63,3.66-3.25-2.9,2.1-5.08,5.32-7.78,8C343.51,228.31,341,230.48,338.58,233.14Zm24.83-25.32a6.58,6.58,0,0,1,1.92-1.86C365.64,206.63,364.33,207.38,363.41,207.82Zm0-11a5,5,0,0,1-1.75-1.11C362.34,195,362.87,196.42,363.46,196.77Zm2.53,8.88c-1.12-.2,1.5-2.07,2.24-2.49C368.5,203.65,366.58,204.87,366,205.65ZM315.24,257c.57-1.42,1.58-2,3-3.29C318.19,254.58,316.1,256,315.24,257Zm-24.6,25.81c-.21-.91,1-1.26,1.74-2.05,2.61-2.81,6.26-6.74,8.89-9.39.46,1.43-1.74,2.33-2.53,3.16C296.5,276.87,294.28,279.28,290.64,282.85Zm43.81-45.66c-.17-1,3.41-4.2,3.49-3.43C336.81,234.46,336.15,235.74,334.45,237.19Zm-15.4,16.11c-.44-.49,1.11-1.89,1.74-2.05C321.12,251.68,319.52,252.65,319.05,253.3Zm-68-200c1,.27,2.65,2.58,3.92,3.65C254,56.73,252.35,54.42,251.08,53.35ZM61.38,152.68c.15-.71,1.16-1.66,1.42-2.4a1.2,1.2,0,0,0-1,.27c-.1-1.13.86-.06,1.44-1.07C63,150.41,62.3,152.25,61.38,152.68Zm-8,7.12c-.58-1.15,1.25-1.8,2.38-2.66C55.94,157.76,54.09,159,53.43,159.8ZM62,147.42c.95-.93,1.92-1.92,2.4-1.35C63.74,145.9,62.3,148.39,62,147.42Zm-6.82,7.69c0-1,1.89-1.89,2.39-2,.77-.79.68-1.29,1.59-1.55C58.53,153.08,56.18,154.36,55.13,155.11Zm7.81-6c-.09-.66,1-1,1.43-1.73.15-.24-.07-.59,0-.66.42-.58.76-.34,1.11-.76s.2-1.6,1.42-2.4c.81.21-.42,1-1,1.6.68.39-.07,1.45,1.14.56.19,1-.81.48-1.12.76s.19.38,0,.66c-.36.6-1.68.87-2.38,2C63.45,148.92,63.22,148.93,62.94,149.13ZM80.57,131.5c1.64-1.49,1.35-2.45,3.49-4.09.2.52.76-.11,1.28-.58-.07,1.53-2,3.36-3.65,3.92.44.4,1.1-.05.82.87,1.26-1.49,4.92-5.08,6.22-4.42-1.35,1.28-2.33,1.37-3.67,2.59-.43.32-.62,1.58.17.84-1.49,2.55-5.76,5.26-7.14,7.34-.06-1.19,1.72-2.7,2.2-3.5-.12-.62-1.84.42-1.6.89-1.59.72.87-1.55,1.58-2.22.88-.27.34.65.5,1.19,1.17-1.37,2-1.61,3-2.63-.38-.94-1.39.61-1.76.72-.14,0,.22-.75,0-.66s-1.15,1.21-1.45.41C80.88,131.86,80.63,131.71,80.57,131.5Zm-20.09,15c1.19-1.36,1.75-3,2.67-4.3.68-1,.72-.14,1.28-1.25,1.09-2.19,3.79-5.08,7.12-8.67.53-.07,1.28-.82,1.76-.72.86.69-1.38,2.25.2,2.16-.87,1.37-1.51,1.3-2.38,2.67.72.74,2.34-1.4,3.67-2.59.33.28,0,.75.34,1-2.23.91-3.82,3.55-6.2,5.74-.5-.23.14-.78.62-1.28a2.89,2.89,0,0,0,.45-2.13c-1.63.61-.87,1.12-1.26,1.91-2.56,2.43-5.27,4.06-6.67,6.55A2.56,2.56,0,0,0,60.48,146.5Zm5.71-6.27c.31.16.88-.49,1.28-.58-.44-.91-1.68.68-2.72,1.65C62.64,143.47,65.38,141.22,66.19,140.23ZM77.38,134c.1.27-.52.74-.3,1,.4.35,1.41-1.25,2.07-1.69-.17-.16-.52.24-.8.45-.68-.39.13-1.64-1.3-.08.27-1.15.67-1.21,1.75-2.05.27-.21-.46.9-.48.8,0,.28,1.76-1.84,2.23-2.18.5.23-.14.78-.62,1.28-.25,1.55-1.27,3.32-3.47,5.42a.9.9,0,0,0-.17-.84c-.44.86.21,1.42-1.25,2.57-.34-.54-.83-.64-1.61.24-.65-1.34,1.38-2.57,2.35-4,.48.44-.19.87.66.7C76.87,135,76.2,134.74,77.38,134ZM53.62,162c-.16-.33.89-1,.63-1.29.84-.8,1.82-1.83,2.54-2.49,1.15-1.06,2.43-2.43,3-2-.7.82-1,.36-1.76,1.38l.49.53c1.46-.31,1.91-1.74,3.66-3.25,1,.31-.73,1.24-1.26,1.9s-.81,1.4-1.26,1.91c-1.47,1.7-3.35,3.23-4.28,4.54-1.17.35.17-.79-.51-1.18,1,.42,3.26-2,4.14-3.39-.72-.24-1.63.07-2.72,1,.23.64.72.5,1.44-.41C57,160.9,54.93,160.85,53.62,162ZM85,126.48c.54-2,1.94-1.23,3.66-3.25-1.6,1.14-1.21,0,0-1.33.6,1,1.47-1,2.72-1-.09.35-.82,1.87.5.52.34,1-1.47,1.73-2.38,2.67-.17-.62,1.54-1.76.45-2.12-.31.31,0,.46,0,.66l-2.22,2.18c-.49.54,1.29.33-.3,1.64C86.29,126.54,87.48,123.94,85,126.48Zm-42.4,43.26c-1.18,1-1.23.28-2.07,1.69C39.73,170.94,42.4,169.12,42.61,169.74Zm148.7,197.4c1.14.38,2.86,2.8,4.23,4C194.4,370.73,192.68,368.32,191.31,367.14ZM42.63,170.4c.4-.85,1.14-1.8.76-2.44,1.14-1,2.39-2.45,3-2-1,.3-2.24,1.93-2.86,2.8.17.16.52-.24.8-.45A2.86,2.86,0,0,1,42.63,170.4Zm144.9,210c-.38.21-.94-.18-1.6-.95-.5.42.17.86-.7.66a34,34,0,0,1-4.09-3.49c-2.18-1.87-4.53-3.7-6.76-5.86a4.44,4.44,0,0,1-.76-1.12c-3.13-3.2-6.81-5.84-10.05-8.87-.57-.54-1.08-1.52-1.69-2.07-.37-.34-1.22-.57-1.6-1s-.88-1.27-1.38-1.75c-2.21-2.13-5.16-4.64-7.34-7.14.75-.2,0-.88.56-1.14-1.47-1.06-.28.43-.88.82-2.46-2.18-3.37-3.48-4.89-4-1.1-.33-.7-1-1.07-1.43-.66-.71-1.85-.8-2.18-2.23-.75,1.44-1.21-.62-2.26-.93a4,4,0,0,1,.37,2.09c.8.26.52-.75,1.68-.35,1.07.93.78,1.42,2,2.39l-.7.66c1,1.12,1.11-.69,2.61.6-.27.34-.75,0-1,.34,1.08,1.37,2.26,1,2.67,2.38a9.27,9.27,0,0,1,4.13,2.84,6.61,6.61,0,0,1-2.4-1.42,8.79,8.79,0,0,0,.72,1.77c.7.68.07-.66,0-.65.44-.09.59.53,1.11.79s1.39-.34,1.91,1.26c-.15.77-.88-.5-1.28-.62s-.57.69-1.33,0c.49,1.87,1.65,2.11,2.77,3.51.83-.77-1.13-1.39-1-2.08.36-1.09,1.51.62,2.13.45.88,1.22-.17.46-.57,1.14a4,4,0,0,0,1.48,2.88c-.62.58-2.27-.1-2.08-1.1-1-.71.5,1.15-.57,1.14-1.08-.26-1.44-1.48-2.18-2.22a15.88,15.88,0,0,1-1.42-1.11c-1.4-1.5-2.75-3.49-4.33-5.1-.63-.64-1-.68-1.42-1.1-2.19-2.32-4.72-5.36-7-7.47a31.38,31.38,0,0,1-2.31-2.71c-5-5.64-10.41-11.32-15-17-.46-.57-.53-1.08-.9-1.6a30.21,30.21,0,0,0-3.43-3.5c-1-1-1.1-1.72-2.49-2.54-1.06-.92-.35-1.28-1-2.08-1.88-1.25-3.07-3.56-5.16-4.92-.61-.52.66-.66,1.15.14-.53-1.74-3-2.61-3-2.05-1-1.33-2.44-2.82-1.93-3.68-2.27-.74-3.44-4.62-5.65-5.07-.74-.44-.41-1.08-.58-1.28s-.73-.33-1.11-.79c-1.23-1.51-3.2-4.31-5.08-6.21-.46-.46-1.61-1.52-1.91-1.27-.34-.39,0-.56.21-.81a24.7,24.7,0,0,1-4.36-4.44c-.31-.31-.46-.05-.67,0-.85-1.49-1.91-1.68-2.14-2.87-.59-.8-.78-.14-1.28-.63a23.13,23.13,0,0,0-3.08-3.82c-.8-.83-2.46-2.25-3-2.7-.71-.61-1.59-1-2.22-1.58C69.73,267.45,67.5,265,65.6,263s-4.38-3.21-5-5.08c-.58-.49-1-.41-1.6-.94s-.35-.76-.76-1.12c-.76-.68-2-1.44-2.84-2.22-1.79-1.77-3.15-3.78-5.13-5.56-.5-.46-.71-.41-1.1-.79-.56-.53-.86-1.23-1.39-1.76s-1.2-.6-1.59-.94c-.18-.15-.42-.75-.76-1.12-.55-.57-.84-.5-1.43-1.1-2.4-2.48-4.84-5.32-7.16-7.31-.56-.48-.34-.74-.76-1.12-1.2-1.08-3.29-2-4.54-4.28a4.7,4.7,0,0,1-1.27-.85c-.71-.65-1.43-1.41-2.2-2.23-1.55-1.64-3.25-3.53-5.35-5.51.49-.15,2,1.76,2.31,1.32a6.13,6.13,0,0,0-2.87-1.88c-.62-1.24-3.45-3.74-5.25-5.66-1.18-1.29-1.41-.43-2.49-1.48-3.73-3.58-6.92-7-10-10.21,2-1.92,3.84-3.75,5.52-5.56,1.22-1.3,1.68-2.27,2.87-3.5,3.45-3.62,7.51-7.11,11.07-10.63,1.08-1.06,2.14-2.5,3.23-3.53s2-1.39,3.17-2.46c.66-.54.82-1.14,1.44-1.75,2.36-2.28,5.29-4.79,8-7.12.69.34-1.16,1.27-2.06,2.36-.54.64-1.28,2.83-2.22,2.18-1.21,1-.2,1.38-1.42,2.39-.26-.31-.66-.22-1.12.1.52.23-.37,1.84-1.75,2,.28,1,1.46-.89,1.78,0l-.72.77-.77.8-1.87,1.91c-1.17,1.18-2.25,2.28-3.63,3.75.33,1,2.62-2,2.74-.68a32.47,32.47,0,0,0-4.54,4.64,16,16,0,0,1-4.37,3.82c-.93,1.11-.68,1.2.26.76-.78,1.22-2.59,1.69-2,2-1.27,1.17-.15-.74-.57-.77a62.37,62.37,0,0,1-7.82,8.55l1,1.2c.31,0-.35-.61-.66-1,.89.9,2.68,2.51,4.45,4.2a38.22,38.22,0,0,1,4.52,4.88c1.63,1.83,2.19,1,3.78,2.8a11.62,11.62,0,0,0,2.47,3.18c.76.9,1.12.86,1.45.78,1,1.14,2.19,3,3.15,2.85.11-.66-2.64-2.8-3.66-4,.75-.13.84-.62-.46-1.83a11.1,11.1,0,0,1-1.19-.87c.05.4.83,1.2.2,1.24-5.17-5.58-9.13-9.57-13-13.38,4.62-4.66,9-9.1,15.39-15.09.86-.41.52,0,.64.37l4.13-4.22c.66-.66,1.3-1.3,1.94-1.92l.48-.45.4-.37.68-.56c.3-.38-.11-.56.31-1,1-.75,2-1.56,2.4-.68.65-1,.85-1.12,0-1.32.43-.2.71.08,1.29-.59.46.76-.73,2-.93,2.93a6.75,6.75,0,0,0-1.44,1c-.18.17-.37.37-.61.63l-1,1.11c-.32,0-.4-.08-.33-.23a2.33,2.33,0,0,1,.43-.53c.31-.31.7-.64.44-.79a2,2,0,0,0-.81.46,4.77,4.77,0,0,0-.48.5,7.12,7.12,0,0,0-.46.56c-.52.73-.62,1.28.31.91-2,1.59-2.18,2.89-3.59,3.54-.64-.08.27-.9,1-1.62-1.17.26-3.08,2.85-2.32,2.95a77.5,77.5,0,0,0-7.66,7.56c-1.42,1.23-2.62,1.77-4.07,3-.43.51.28.39-.32,1-1,.91-1.95,1.87-2.94,2.87,3.6,3.62,7.67,7.46,9.9,10.34-.42.73-1.84-1.33-2.83-2.18a5.73,5.73,0,0,0,2.27,2.45,26.09,26.09,0,0,0,2.62,1.47c2.54,3,5,5.58,7.42,8.09l1.59,1.6,1.3,1.29,2.79,2.67c-.1.55.8,1.06-.22.81.78,1.19,1,.51,1.6.94a72.27,72.27,0,0,0,7.3,7.79c1.24,1.12,2.79,2.52,3.92,3.65,1,1,1.43,1.85,2.32,2.71.5.48,1.24.91,1.73,1.42s.39,1.05.89,1.6a50,50,0,0,0,4.1,3.49c.38.26.55-.09,1,.3a7.23,7.23,0,0,0,2,2.39c1.08,1,.93,1.73,2,1.74,1,1,.58,1.5,1.83,2.56.15-.25-.42-.72-.76-1.12,1-.31,1.34,1,2,1.74,3.9,4,7.62,7.31,12.15,12.39,1.39,1.57,4.12,4.28,6.23,6.36.57.56.46.85,1.07,1.43,1.3,1.23,3.31,2.36,3.26,3.66.68-.11,3.73,2.63,4.09,3.49.08.2-1-.49-1.11-.79-.41.19,1.43,2.07,1.42,1.11a6.39,6.39,0,0,0,2.14,2.87c.16-.17-.24-.52-.45-.8,1.66.89,3.9,3.85,5.79,5.55a14.58,14.58,0,0,0,4,5.42c.16-.53-1.53-1.65-.54-1.92,1.62,2,2.54,1.66,4.4,3.8,1.09,1.25,2,2.78,3.39,4.14-.26.14-.72-.44-1.11-.79.2,1.13,2.07,2.12,1.77.78.76.68,1.13,1.24.89,1.6,2.35,1.39,5,4.86,7.52,7-1.59-.58.63,2,1.52,2.24.44-.8-2-1.17-.89-1.6,3,3,6.55,6.85,8.72,8.89-.37.18,0,.58-.21.81.49.17,1,.32,1.46.46,1.34,1.37,2.67,2.87,4.05,4.13,2.38,2.18,4.53,4.95,7,7.48.58.59,1.46,1.15,2.05,1.74,2.64,2.63,7.11,7.55,10.59,10.8,1.06,1,2.15,1.62,3.16,2.53,2.14,1.95,3.89,4.07,5.92,6,2.54,2.47,5.19,4.69,7.52,7,.56.56.46.85,1.07,1.44s1,.7,1.42,1.1c.8.85,1.3,2.15,2.67,2.38,3.73,3.94,4.36,4.32,8.1,8.26-.28.34-.75,0-1,.34l-2.5-2.54c-.64-.72-.76.44-1.19.5.61.79.77.15,1.29.63.83.76,0,.55.27,1a2.28,2.28,0,0,0,1.11.79C187.08,379.32,186.55,380.09,187.53,380.43ZM20.36,210.4c-1-1-.51-2-2.46-2.84C18.86,208.47,18.42,209.63,20.36,210.4Zm1.77-21.17c1.24-.85,2.75-2.29,4.08-3.35-.42-.81-4.07,2-4.24,2.5C23.64,186.92,21.5,189.37,22.13,189.23Zm-8.2,4.4c.75.18,4.72-3.35,5-4.27A28.51,28.51,0,0,0,13.93,193.63Zm.81,19c-1.08-1.31-3.76-4.69-5.24-5C11.9,209.49,12.35,211.07,14.74,212.6Zm18,10.65A7.67,7.67,0,0,0,30.5,221c-1-.78-1.88-1.33-1.52-.8C29.84,220.3,31.94,223.29,32.7,223.25Zm18.75,24.93a4.5,4.5,0,0,0-2.36-2.06C49.68,246.9,50.68,248.57,51.45,248.18Zm9.7,9.21c.32-.49-1-.68-1.29-.63l2.8,2.86C63.59,259.33,61.68,258.14,61.15,257.39Zm39.28,37a2.3,2.3,0,0,0-2.08-1.1C99.16,294.05,100,294.86,100.43,294.36Zm3.14.11c-1.34-1-3-4.44-4.23-4,1,1.42.4.57,1.11.79C102,291.78,102.29,295.43,103.57,294.47Zm7.2,6.66c-.28-.9-1.87-2-2.39-1.41C109.43,301.09,110,300.82,110.77,301.13Zm.28,1c1,.88.56,1.34,1.51,2.23C113.55,304.18,111.71,302,111.05,302.1Zm9.36,17.43-1.24-1.27C117.86,318.52,120.17,320.47,120.41,319.53Zm4.85,4.6c-1.88-1.47-.11-1.79-1.79-3.19-.54.56.51,1.62.68,2.4-.18.93-1.14-.9-1.32,0C123.87,324.46,124.5,324.07,125.26,324.13Zm8.22,11.81,1.25,1.27C135.65,336.83,133.91,335.06,133.48,335.94Zm3.62.27c-.85-.95-1.62-1.57-2.22-1.58a1.2,1.2,0,0,1,.28,1C136,336.38,136.62,336.59,137.1,336.21ZM151.9,354c.28,1,0,1.76.82,2.89,1.12-.07-.35-1.41-.54-1.92-.06-.15.36-.19.35-.33,0,.06-.49-.89-.45-.8-.27-.54-.76-.91-1.07-1.44C150.17,352.62,151.39,353.44,151.9,354Zm-2.7-1.73-1.56-1.59C146.62,350.74,149.14,353.3,149.2,352.31Zm-1.58-4c-.62,1.1,1.5,1.76,1.48,2.88.31-.47,1.1.74,1.46.46C149.61,350.22,148.76,350,147.62,348.3Zm-4.07-1.06c.56,1,1.16.64,1.91,1.26.36.29,1.07,2.27,1.73,1.42C146.86,349.07,144.17,346.52,143.55,347.24Zm-4.64-5.41c.86.68,1.76,1.49,2.26.93C140.32,342.08,139.42,341.26,138.91,341.83Zm37.23,27.32c.2-.45.64-.82-.24-1.61-.92-.21-1.22-.23-1.36.67C175.26,369.2,175.51,368.52,176.14,369.15Zm5.41,3.47a1.2,1.2,0,0,1-.27-1c.32.35.87.73.48.16-1.06-.32-.91-1.22-2.17-2.23-.87.6.65,1.6,1.51,2.24C180.72,372,181.05,372.69,181.55,372.62ZM48.7,167.13c1.52-1.55,1.41-2.14,2.52-3.82a15.1,15.1,0,0,1,3.21-1.13c-.06,1.27-1.41,2.91-2.51,4.48a5,5,0,0,1,1.57-2.88c-.34-.56-1-.15-1.76.72.6,1.09-2.16,5.8-4,4.89.81-.76,1.29-.64,1.59-1.56-2.08.49-3.47,4.08-5.1,4.32l.66.7c1.32-1,1.32-1.7,2.38-2.66,1.59.37-2.16,3.83-2.85,3.46a7.78,7.78,0,0,1-2.54,2.5c0-.6.9-1.44.61-2,.62-.57.77.36,1.45-.41.42-.49-.38-.63.14-1.15-.32-.14-.93.64-1.43,1.07-.34-1.1,1-2.57,2-3.68S47.55,168.3,48.7,167.13Zm-2.45-2,1-.93c-.39,1.17.78-.14,1.14.56A1.47,1.47,0,0,1,46.25,165.16Zm-4.41,6.35a15.52,15.52,0,0,1-2.08,1.69C39.52,172.93,41.76,170.51,41.84,171.51Z" transform="translate(-4.44 -6.08)"/><path class="cls-2" d="M39.63,224.76l54.71-53.69,87.23-85.62,20.06-19.69c1.19-1.16,1.53-5.63,1.94-7.24s.6-6.1,1.8-7.28l-54.71,53.69L63.43,190.55,43.37,210.24c-1.19,1.16-1.53,5.63-1.94,7.24s-.6,6.1-1.8,7.28Z" transform="translate(-4.44 -6.08)"/><path class="cls-3" d="M209,178.27l.88-125.48L210,35.27c0-3-2,2.8-1.72,2.16-1.77,4.61-3.11,9.54-4.42,14.29-1.71,6.18-3.35,12.4-4.73,18.67-.81,3.66-2,7.58-2.07,11.34l-.88,125.48L196,224.73c0,3,2-2.8,1.72-2.16,1.77-4.61,3.11-9.54,4.42-14.29,1.71-6.18,3.35-12.4,4.73-18.67.81-3.66,2-7.58,2.07-11.34Z" transform="translate(-4.44 -6.08)"/><line class="cls-4" x1="183.06" y1="357.42" x2="354.06" y2="193.42"/><path class="cls-3" d="M185.63,370.76l57.85-55.48,92.12-88.35,21-20.17c1.18-1.13,1.53-5.65,1.94-7.24s.6-6.13,1.8-7.28l-57.85,55.48L210.4,336.07l-21,20.17c-1.18,1.13-1.53,5.65-1.94,7.24s-.6,6.13-1.8,7.28Z" transform="translate(-4.44 -6.08)"/><path class="cls-2" d="M201.63,209.76h173c1.35,0,2.6-14.52,3.74-14.52h-173c-1.35,0-2.6,14.52-3.74,14.52Z" transform="translate(-4.44 -6.08)"/><text class="cls-5" transform="matrix(1.52, -1.49, 0.7, 0.72, 224.44, 359.69)">s<tspan class="cls-6" x="5.89" y="0">t</tspan><tspan class="cls-7" x="13.94" y="0">ockman</tspan><tspan class="cls-8" x="71.72" y="0">a</tspan><tspan x="79.65" y="0">ge</tspan></text></svg>